<svg width="338.18658447265625px" height="129.44000549316405px" xmlns="http://www.w3.org/2000/svg" viewBox="80.90670776367188 10.279997253417974 338.18658447265625 129.44000549316405" style="background: rgba(0, 0, 0, 0);" preserveAspectRatio="xMidYMid"><defs><linearGradient id="editing-shiny-gradient" x1="0.04322727117869957" x2="0.9567727288213004" y1="0.2966316784620999" y2="0.7033683215379001" gradientUnits="objectBoundingBox"><stop offset="0.0" stop-color="#ffb200"></stop><stop offset="0.5" stop-color="#e10057"></stop><stop offset="1.0" stop-color="#5A1A80"></stop></linearGradient><linearGradient id="editing-shiny-gradient2" x1="0" x2="0" y1="0" y2="1"><stop offset="0.2" stop-color="#fff" stop-opacity="0.8"></stop><stop offset="0.8" stop-color="#fff" stop-opacity="0"></stop></linearGradient><filter id="editing-shiny2" x="-100%" y="-100%" width="300%" height="300%"><feMorphology operator="erode" radius="2"></feMorphology></filter><filter id="editing-shiny" x="-100%" y="-100%" width="300%" height="300%"><feFlood flood-color="#fff" result="flood"></feFlood><feConvolveMatrix in="SourceGraphic" result="conv" order="8,8" divisor="1" kernelMatrix="0 0 0 0 0 0 0 0 0 0 0 1 1 0 0 0 0 0 0 1 1 0 0 0 0 0 1 0 0 1 0 0 0 0 1 0 0 1 0 0 0 1 0 0 0 0 1 0 0 1 1 0 0 1 1 0 0 0 0 1 1 0 0 0 "></feConvolveMatrix><feOffset dx="0" dy="4" in="conv" result="offset"></feOffset><feComposite operator="in" in="flood" in2="offset" result="comp"></feComposite><feGaussianBlur in="offset" stdDeviation="3" result="shadow"></feGaussianBlur><feColorMatrix in="shadow" type="matrix" values="0.7 0 0 0 0  0 0.7 0 0 0  0 0 0.7 0 0  0 0 0 0.3 0" result="dark-shadow"></feColorMatrix><feOffset dx="0" dy="4" in="dark-shadow" result="offset-shadow"></feOffset><feOffset dx="0" dy="2" in="conv" result="offset-2"></feOffset><feComposite operator="out" in="offset" in2="offset-2" result="edge-diff"></feComposite><feGaussianBlur in="edge-diff" stdDeviation="1" result="edge-blur"></feGaussianBlur><feColorMatrix in="edge-blur" result="edge-shadow" type="matrix" values="0 0 0 0 0  0 0 0 0 0  0 0 0 0 0  0 0 0 0.5 0"></feColorMatrix><feComposite operator="in" in="edge-shadow" in2="offset" result="edge-shadow-in"></feComposite><feOffset dx="0" dy="1" in="edge-shadow-in" result="edge-shadow-final"></feOffset><feMerge result="out"><feMergeNode in="offset-shadow"></feMergeNode><feMergeNode in="comp"></feMergeNode><feMergeNode in="edge-shadow-final"></feMergeNode><feMergeNode in="SourceGraphic"></feMergeNode></feMerge></filter></defs><g filter="url(#editing-shiny)"><g transform="translate(134.92284548282623, 103)"><path d="M49.28-12.10L49.28-12.10L49.28-12.10Q49.28-9.79 48.26-7.74L48.26-7.74L48.26-7.74Q46.08-3.14 39.94-0.06L39.94-0.06L39.94-0.06Q33.79 3.01 27.14 3.01L27.14 3.01L27.14 3.01Q17.02 3.01 13.38-3.90L13.38-3.90L13.38-3.90Q6.78 1.60 3.97 1.60L3.97 1.60L3.97 1.60Q3.46 1.60 3.07 1.41L3.07 1.41L3.07 1.41Q1.15 0.38 1.15-3.01L1.15-3.01L1.15-3.01Q1.15-6.40 3.97-11.33L3.97-11.33L3.97-11.33Q6.78-16.26 8.90-17.15L8.90-17.15L8.90-17.15Q9.86-17.47 10.37-17.47L10.37-17.47L10.37-17.47Q12.22-17.47 13.18-14.40L13.18-14.40L15.10-8.26L15.10-8.26Q16.96-10.24 20.16-14.59L20.16-14.59L25.86-22.27L25.86-22.27Q36.35-35.90 39.62-37.18L39.62-37.18L39.62-37.18Q40.77-37.63 41.98-37.63L41.98-37.63L41.98-37.63Q43.20-37.63 44-37.12L44-37.12L44-37.12Q44.80-36.61 44.80-35.84L44.80-35.84L44.80-35.84Q44.80-34.69 42.94-34.50L42.94-34.50L42.94-34.50Q41.02-33.41 35.62-28.13L35.62-28.13L35.62-28.13Q30.21-22.85 29.18-21.44L29.18-21.44L29.18-21.44Q22.02-11.46 15.94-6.08L15.94-6.08L15.94-6.08Q19.84 1.66 27.65 1.66L27.65 1.66L27.65 1.66Q32.38 1.66 37.06-1.31L37.06-1.31L37.06-1.31Q41.73-4.29 44.03-8.64L44.03-8.64L44.03-8.64Q45.06-10.50 45.06-12.80L45.06-12.80L45.06-12.80Q45.06-15.10 43.23-17.18L43.23-17.18L43.23-17.18Q41.41-19.26 38.66-20.22L38.66-20.22L38.66-20.22Q37.38-20.42 34.56-20.77L34.56-20.77L34.56-20.77Q31.74-21.12 31.74-21.95L31.74-21.95L31.74-21.95Q31.74-22.27 32-22.53L32-22.53L32-22.53Q32.77-23.42 33.98-23.42L33.98-23.42L33.98-23.42Q34.69-23.42 35.36-23.17L35.36-23.17L35.36-23.17Q36.03-22.91 36.42-22.78L36.42-22.78L36.42-22.78Q36.80-22.66 37.31-22.46L37.31-22.46L37.31-22.46Q38.72-22.34 39.74-22.34L39.74-22.34L39.74-22.34Q43.97-22.34 47.42-23.68L47.42-23.68L47.42-23.68Q51.84-25.41 53.06-28.86L53.06-28.86L53.06-28.86Q53.82-31.10 53.82-32.90L53.82-32.90L53.82-32.90Q53.82-37.31 49.54-39.49L49.54-39.49L49.54-39.49Q45.82-41.41 39.36-41.41L39.36-41.41L39.36-41.41Q29.18-41.41 21.12-37.57L21.12-37.57L21.12-37.57Q17.02-35.65 13.34-31.87L13.34-31.87L13.34-31.87Q9.66-28.10 9.66-25.41L9.66-25.41L9.66-25.41Q9.66-23.55 10.62-22.34L10.62-22.34L10.62-22.34Q11.01-21.82 11.97-21.06L11.97-21.06L11.97-21.06Q12.29-20.86 11.58-20.86L11.58-20.86L11.58-20.86Q7.62-21.76 7.62-26.18L7.62-26.18L7.62-26.18Q7.62-30.59 12.10-34.50L12.10-34.50L12.10-34.50Q15.42-37.38 19.58-39.17L19.58-39.17L19.58-39.17Q28.22-42.88 39.23-42.88L39.23-42.88L39.23-42.88Q47.10-42.88 51.78-40.58L51.78-40.58L51.78-40.58Q57.22-38.02 57.22-32.83L57.22-32.83L57.22-32.83Q57.22-30.78 56.38-28.67L56.38-28.67L56.38-28.67Q55.04-24.83 49.41-22.85L49.41-22.85L49.41-22.85Q45.18-21.38 40.32-21.31L40.32-21.31L40.32-21.31Q44.10-21.12 46.69-18.53L46.69-18.53L46.69-18.53Q49.28-15.94 49.28-12.10ZM8.38-14.46L8.38-14.46L8.38-14.46Q8.32-14.46 8.06-14.34L8.06-14.34L8.06-14.34Q3.33-7.49 3.33-3.33L3.33-3.33L3.33-3.33Q3.33-1.60 4.16-0.19L4.16-0.19L4.16-0.19Q4.35 0.13 4.80 0.13L4.80 0.13L4.80 0.13Q6.85 0.13 12.67-5.70L12.67-5.70L12.48-5.95L12.48-5.95Q9.92-14.46 8.38-14.46ZM55.68 0.83L55.68 0.83L55.68 0.83Q54.98 0.83 54.40 0.64L54.40 0.64L54.40 0.64Q50.30-0.51 50.30-3.97L50.30-3.97L50.30-3.97Q50.30-8.45 55.94-14.34L55.94-14.34L55.94-14.34Q61.57-20.22 66.05-20.22L66.05-20.22L66.05-20.22Q67.52-20.22 68.45-19.42L68.45-19.42L68.45-19.42Q69.38-18.62 69.38-17.47L69.38-17.47L69.38-17.47Q69.38-13.89 63.97-10.62L63.97-10.62L63.97-10.62Q58.56-7.36 55.17-7.36L55.17-7.36L55.17-7.36Q54.66-7.36 54.27-7.49L54.27-7.49L54.27-7.49Q53.31-5.76 53.31-3.84L53.31-3.84L53.31-3.84Q53.31-0.51 56.48-0.51L56.48-0.51L56.48-0.51Q59.65-0.51 64.70-4.80L64.70-4.80L64.70-4.80Q68.61-7.94 71.36-11.46L71.36-11.46L71.36-11.46Q71.94-12.22 72.35-12.22L72.35-12.22L72.35-12.22Q72.77-12.22 72.77-11.84L72.77-11.84L72.77-11.84Q72.77-11.46 72.26-10.75L72.26-10.75L72.26-10.75Q68.80-6.21 63.94-2.69L63.94-2.69L63.94-2.69Q59.07 0.83 55.68 0.83ZM67.78-17.60L67.78-17.60L67.78-17.60Q67.78-18.37 66.14-18.37L66.14-18.37L66.14-18.37Q64.51-18.37 61.50-15.87L61.50-15.87L61.50-15.87Q57.47-12.54 55.23-8.90L55.23-8.90L55.23-8.90Q55.62-8.77 56.06-8.77L56.06-8.77L56.06-8.77Q58.50-8.77 62.56-11.36L62.56-11.36L62.56-11.36Q66.62-13.95 67.65-17.02L67.65-17.02L67.65-17.02Q67.78-17.34 67.78-17.60ZM85.57-20.61L85.57-20.61L94.78-20.74L94.78-20.74Q94.98-20.61 94.98-20.54L94.98-20.54L94.98-20.54Q94.98-19.97 87.01-18.94L87.01-18.94L87.01-18.94Q79.04-17.92 78.40-17.73L78.40-17.73L78.40-17.73Q77.18-16.64 73.92-11.23L73.92-11.23L73.92-11.23Q70.66-5.82 70.66-3.33L70.66-3.33L70.66-3.33Q70.66-0.96 73.92-0.96L73.92-0.96L73.92-0.96Q75.46-0.96 77.95-1.92L77.95-1.92L77.95-1.92Q80.45-2.88 81.79-3.71L81.79-3.71L81.79-3.71Q85.38-5.95 89.47-10.30L89.47-10.30L89.47-10.30Q90.37-11.20 90.69-11.20L90.69-11.20L90.69-11.20Q90.88-11.20 90.88-10.82L90.88-10.82L90.88-10.82Q90.88-10.43 89.92-9.28L89.92-9.28L89.92-9.28Q86.59-5.18 82.43-2.69L82.43-2.69L82.43-2.69Q77.44 0.38 72.90 0.38L72.90 0.38L72.90 0.38Q70.91 0.38 69.66-0.48L69.66-0.48L69.66-0.48Q68.42-1.34 68.42-3.97L68.42-3.97L68.42-3.97Q68.42-6.59 70.72-11.17L70.72-11.17L70.72-11.17Q73.02-15.74 74.24-17.98L74.24-17.98L74.24-17.98Q73.34-17.79 72.70-17.79L72.70-17.79L72.70-17.79Q70.85-17.79 70.85-19.26L70.85-19.26L70.85-19.26Q70.85-20.35 72.38-20.80L72.38-20.80L72.38-20.80Q72.58-20.80 72.96-20.86L72.96-20.86L76.67-20.86L76.67-20.86Q77.82-22.34 79.30-24.26L79.30-24.26L79.30-24.26Q81.09-26.56 81.73-26.56L81.73-26.56L81.73-26.56Q82.37-26.56 83.33-26.05L83.33-26.05L83.33-26.05Q84.29-25.54 84.29-24.83L84.29-24.83L84.29-24.83Q84.29-24.13 81.22-20.67L81.22-20.67L81.22-20.67Q82.88-20.61 85.57-20.61ZM109.12-19.14L109.12-19.14L110.02-19.33L110.02-19.33Q110.72-19.33 111.36-18.75L111.36-18.75L111.36-18.75Q112-18.18 112-17.86L112-17.86L112-17.86Q112-17.54 108.03-11.68L108.03-11.68L108.03-11.68Q104.06-5.82 104.06-3.52L104.06-3.52L104.06-3.52Q104.06-3.33 104.13-3.14L104.13-3.14L104.13-3.14Q104.45-1.66 105.54-1.66L105.54-1.66L105.54-1.66Q108.86-1.66 117.70-12.67L117.70-12.67L117.70-12.67Q117.89-12.93 118.14-12.93L118.14-12.93L118.14-12.93Q118.40-12.93 118.40-12.45L118.40-12.45L118.40-12.45Q118.40-11.97 117.82-11.20L117.82-11.20L117.82-11.20Q109.63-0.26 105.34-0.26L105.34-0.26L105.34-0.26Q104.77-0.26 104.26-0.45L104.26-0.45L104.26-0.45Q101.44-1.54 101.44-4.67L101.44-4.67L101.44-4.67Q101.44-5.76 101.70-6.85L101.70-6.85L97.73-3.01L97.73-3.01Q93.95 0.32 92.26 0.32L92.26 0.32L92.26 0.32Q90.56 0.32 89.02-0.77L89.02-0.77L89.02-0.77Q87.30-2.05 87.30-4.16L87.30-4.16L87.30-4.16Q87.30-8.83 93.82-15.33L93.82-15.33L93.82-15.33Q100.35-21.82 105.79-21.82L105.79-21.82L105.79-21.82Q107.90-21.82 108.61-20.35L108.61-20.35L108.61-20.35Q108.80-19.84 108.93-19.49L108.93-19.49L108.93-19.49Q109.06-19.14 109.12-19.14ZM89.98-3.39L89.98-3.39L89.98-3.39Q89.98-1.09 91.58-1.09L91.58-1.09L91.58-1.09Q95.30-1.09 101.70-9.22L101.70-9.22L108.48-18.56L108.48-18.56Q107.97-19.46 106.82-19.46L106.82-19.46L106.82-19.46Q102.91-19.46 96.45-13.41L96.45-13.41L96.45-13.41Q89.98-7.36 89.98-3.39ZM135.62-19.52L135.62-19.52L136.51-19.71L136.51-19.71Q137.34-19.71 137.82-19.20L137.82-19.20L137.82-19.20Q138.30-18.69 138.30-18.40L138.30-18.40L138.30-18.40Q138.30-18.11 138.24-17.76L138.24-17.76L138.24-17.76Q138.18-17.41 136.38-14.53L136.38-14.53L136.38-14.53Q134.14-10.62 132.67-7.94L132.67-7.94L132.67-7.94Q127.49 1.73 124.74 5.31L124.74 5.31L124.74 5.31Q118.85 13.12 113.54 13.12L113.54 13.12L113.54 13.12Q111.68 13.12 110.30 11.55L110.30 11.55L110.30 11.55Q108.93 9.98 108.86 8.06L108.86 8.06L108.86 8.06Q109.06 7.30 109.44 7.30L109.44 7.30L109.44 7.30Q109.63 7.30 109.76 7.74L109.76 7.74L109.76 7.74Q110.08 9.41 110.98 10.30L110.98 10.30L110.98 10.30Q111.87 11.20 112.77 11.20L112.77 11.20L112.77 11.20Q116.42 11.20 120.58 6.40L120.58 6.40L120.58 6.40Q123.33 3.20 126.66-2.94L126.66-2.94L129.86-9.28L125.06-4.42L125.06-4.42Q120.45 0 118.75 0L118.75 0L118.75 0Q117.06 0 115.52-1.15L115.52-1.15L115.52-1.15Q113.79-2.43 113.79-4.54L113.79-4.54L113.79-4.54Q113.79-9.22 120.35-15.68L120.35-15.68L120.35-15.68Q126.91-22.14 132.29-22.14L132.29-22.14L132.29-22.14Q134.46-22.14 135.10-20.74L135.10-20.74L135.10-20.74Q135.30-20.22 135.42-19.87L135.42-19.87L135.42-19.87Q135.55-19.52 135.62-19.52ZM116.48-3.78L116.48-3.78L116.48-3.78Q116.48-1.47 118.08-1.47L118.08-1.47L118.08-1.47Q121.79-1.47 128.19-9.60L128.19-9.60L134.98-18.94L134.98-18.94Q134.59-19.84 133.38-19.84L133.38-19.84L133.38-19.84Q129.41-19.84 122.94-13.73L122.94-13.73L122.94-13.73Q116.48-7.62 116.48-3.78ZM150.98 0.32L150.98 0.32L150.98 0.32Q146.18 0.32 146.18-4.99L146.18-4.99L146.18-4.99Q146.18-7.68 147.58-10.88L147.58-10.88L147.58-10.88Q148.99-14.08 150.66-16.26L150.66-16.26L150.66-16.26Q150.34-16.19 149.82-16.19L149.82-16.19L149.82-16.19Q148.29-16.19 147.26-18.37L147.26-18.37L142.53-12.22L142.53-12.22Q138.56-7.30 137.92-7.30L137.92-7.30L137.92-7.30Q137.60-7.30 137.60-7.55L137.60-7.55L137.60-7.55Q137.60-8.19 138.69-9.41L138.69-9.41L138.69-9.41Q144.26-15.87 146.56-20.35L146.56-20.35L146.56-20.35Q148.03-25.92 150.27-25.92L150.27-25.92L150.27-25.92Q151.74-25.92 151.74-24.64L151.74-24.64L151.74-24.64Q151.74-23.36 150.14-21.38L150.14-21.38L148.61-19.33L148.61-19.33Q148.61-17.98 150.59-17.98L150.59-17.98L150.59-17.98Q151.74-17.98 153.15-18.82L153.15-18.82L154.82-19.84L154.82-19.84Q154.94-19.90 155.46-19.90L155.46-19.90L155.46-19.90Q155.97-19.90 156.54-19.26L156.54-19.26L156.54-19.26Q157.12-18.62 156.93-18.11L156.93-18.11L152.51-12.54L152.51-12.54Q148.42-7.30 148.42-4.26L148.42-4.26L148.42-4.26Q148.42-1.22 151.23-1.22L151.23-1.22L151.23-1.22Q154.18-1.22 158.46-4.35L158.46-4.35L158.46-4.35Q161.02-6.21 163.14-8.51L163.14-8.51L163.14-8.51Q165.12-10.82 165.31-10.82L165.31-10.82L165.31-10.82Q165.76-10.82 165.76-10.34L165.76-10.34L165.76-10.34Q165.76-9.86 165.18-9.22L165.18-9.22L163.14-6.91L163.14-6.91Q161.41-5.12 159.30-3.46L159.30-3.46L159.30-3.46Q154.24 0.32 150.98 0.32ZM184.38-19.14L184.38-19.14L185.28-19.33L185.28-19.33Q185.98-19.33 186.62-18.75L186.62-18.75L186.62-18.75Q187.26-18.18 187.26-17.86L187.26-17.86L187.26-17.86Q187.26-17.54 183.30-11.68L183.30-11.68L183.30-11.68Q179.33-5.82 179.33-3.52L179.33-3.52L179.33-3.52Q179.33-3.33 179.39-3.14L179.39-3.14L179.39-3.14Q179.71-1.66 180.80-1.66L180.80-1.66L180.80-1.66Q184.13-1.66 192.96-12.67L192.96-12.67L192.96-12.67Q193.15-12.93 193.41-12.93L193.41-12.93L193.41-12.93Q193.66-12.93 193.66-12.45L193.66-12.45L193.66-12.45Q193.66-11.97 193.09-11.20L193.09-11.20L193.09-11.20Q184.90-0.26 180.61-0.26L180.61-0.26L180.61-0.26Q180.03-0.26 179.52-0.45L179.52-0.45L179.52-0.45Q176.70-1.54 176.70-4.67L176.70-4.67L176.70-4.67Q176.70-5.76 176.96-6.85L176.96-6.85L172.99-3.01L172.99-3.01Q169.22 0.32 167.52 0.32L167.52 0.32L167.52 0.32Q165.82 0.32 164.29-0.77L164.29-0.77L164.29-0.77Q162.56-2.05 162.56-4.16L162.56-4.16L162.56-4.16Q162.56-8.83 169.09-15.33L169.09-15.33L169.09-15.33Q175.62-21.82 181.06-21.82L181.06-21.82L181.06-21.82Q183.17-21.82 183.87-20.35L183.87-20.35L183.87-20.35Q184.06-19.84 184.19-19.49L184.19-19.49L184.19-19.49Q184.32-19.14 184.38-19.14ZM165.25-3.39L165.25-3.39L165.25-3.39Q165.25-1.09 166.85-1.09L166.85-1.09L166.85-1.09Q170.56-1.09 176.96-9.22L176.96-9.22L183.74-18.56L183.74-18.56Q183.23-19.46 182.08-19.46L182.08-19.46L182.08-19.46Q178.18-19.46 171.71-13.41L171.71-13.41L171.71-13.41Q165.25-7.36 165.25-3.39ZM220.10-0.77L220.10-0.77L220.10-0.77Q215.74-0.77 215.74-4.80L215.74-4.80L215.74-4.80Q215.74-7.10 217.79-11.10L217.79-11.10L217.79-11.10Q219.84-15.10 222.08-17.86L222.08-17.86L222.08-17.86Q218.11-15.94 212.93-10.91L212.93-10.91L212.93-10.91Q207.74-5.89 205.70-0.38L205.70-0.38L205.70-0.38Q205.38 0.13 204.61 0.13L204.61 0.13L204.61 0.13Q203.07 0.13 203.07-1.60L203.07-1.60L203.07-1.60Q203.71-5.12 205.95-9.66L205.95-9.66L205.95-9.66Q206.66-11.14 210.11-18.24L210.11-18.24L210.11-18.24Q205.12-14.98 201.63-11.23L201.63-11.23L201.63-11.23Q198.14-7.49 195.17-3.71L195.17-3.71L195.17-3.71Q192.19 0.06 191.81 0.06L191.81 0.06L191.81 0.06Q190.98 0.06 190.37-0.70L190.37-0.70L190.37-0.70Q189.76-1.47 189.76-2.24L189.76-2.24L189.76-2.24Q189.76-3.39 193.09-10.69L193.09-10.69L189.25-6.66L189.25-6.66Q187.84-5.25 187.49-5.25L187.49-5.25L187.49-5.25Q187.14-5.25 187.14-5.66L187.14-5.66L187.14-5.66Q187.14-6.08 187.65-6.59L187.65-6.59L187.65-6.59Q190.02-8.96 191.87-11.33L191.87-11.33L191.87-11.33Q193.73-13.70 198.02-19.78L198.02-19.78L198.02-19.78Q198.72-20.74 200.00-20.74L200.00-20.74L200.00-20.74Q201.28-20.74 201.28-19.52L201.28-19.52L201.28-19.52Q201.28-19.07 197.89-13.28L197.89-13.28L197.89-13.28Q194.50-7.49 194.11-6.02L194.11-6.02L194.11-6.02Q196.74-8.90 201.98-13.76L201.98-13.76L201.98-13.76Q209.86-21.06 212.35-21.06L212.35-21.06L212.35-21.06Q213.12-21.06 213.76-20.61L213.76-20.61L213.76-20.61Q214.40-20.16 214.40-19.62L214.40-19.62L214.40-19.62Q214.40-19.07 211.90-14.78L211.90-14.78L211.90-14.78Q209.47-10.37 209.22-9.54L209.22-9.54L209.22-9.54Q216.32-15.49 216.32-15.55L216.32-15.55L216.32-15.55Q222.34-20.22 224.96-20.22L224.96-20.22L224.96-20.22Q225.73-20.22 226.40-19.74L226.40-19.74L226.40-19.74Q227.07-19.26 227.07-18.62L227.07-18.62L227.07-18.62Q227.07-18.50 222.91-13.22L222.91-13.22L222.91-13.22Q218.75-7.94 218.24-4.54L218.24-4.54L218.24-4.54Q218.11-3.39 218.69-2.82L218.69-2.82L218.69-2.82Q219.26-2.24 220.77-2.24L220.77-2.24L220.77-2.24Q222.27-2.24 225.18-4.32L225.18-4.32L225.18-4.32Q228.10-6.40 231.10-9.92L231.10-9.92L231.10-9.92Q232.26-11.20 232.67-11.20L232.67-11.20L232.67-11.20Q233.09-11.20 233.09-10.88L233.09-10.88L233.09-10.88Q233.09-10.43 232.51-9.86L232.51-9.86L232.51-9.86Q229.38-6.08 225.76-3.42L225.76-3.42L225.76-3.42Q222.14-0.77 220.10-0.77Z" fill="url(#editing-shiny-gradient)"></path></g></g><g filter="url(#editing-shiny2)"><g transform="translate(134.6889511346817, 103)"><path d="M49.28-12.10L49.28-12.10L49.28-12.10Q49.28-9.79 48.26-7.74L48.26-7.74L48.26-7.74Q46.08-3.14 39.94-0.06L39.94-0.06L39.94-0.06Q33.79 3.01 27.14 3.01L27.14 3.01L27.14 3.01Q17.02 3.01 13.38-3.90L13.38-3.90L13.38-3.90Q6.78 1.60 3.97 1.60L3.97 1.60L3.97 1.60Q3.46 1.60 3.07 1.41L3.07 1.41L3.07 1.41Q1.15 0.38 1.15-3.01L1.15-3.01L1.15-3.01Q1.15-6.40 3.97-11.33L3.97-11.33L3.97-11.33Q6.78-16.26 8.90-17.15L8.90-17.15L8.90-17.15Q9.86-17.47 10.37-17.47L10.37-17.47L10.37-17.47Q12.22-17.47 13.18-14.40L13.18-14.40L15.10-8.26L15.10-8.26Q16.96-10.24 20.16-14.59L20.16-14.59L25.86-22.27L25.86-22.27Q36.35-35.90 39.62-37.18L39.62-37.18L39.62-37.18Q40.77-37.63 41.98-37.63L41.98-37.63L41.98-37.63Q43.20-37.63 44-37.12L44-37.12L44-37.12Q44.80-36.61 44.80-35.84L44.80-35.84L44.80-35.84Q44.80-34.69 42.94-34.50L42.94-34.50L42.94-34.50Q41.02-33.41 35.62-28.13L35.62-28.13L35.62-28.13Q30.21-22.85 29.18-21.44L29.18-21.44L29.18-21.44Q22.02-11.46 15.94-6.08L15.94-6.08L15.94-6.08Q19.84 1.66 27.65 1.66L27.65 1.66L27.65 1.66Q32.38 1.66 37.06-1.31L37.06-1.31L37.06-1.31Q41.73-4.29 44.03-8.64L44.03-8.64L44.03-8.64Q45.06-10.50 45.06-12.80L45.06-12.80L45.06-12.80Q45.06-15.10 43.23-17.18L43.23-17.18L43.23-17.18Q41.41-19.26 38.66-20.22L38.66-20.22L38.66-20.22Q37.38-20.42 34.56-20.77L34.56-20.77L34.56-20.77Q31.74-21.12 31.74-21.95L31.74-21.95L31.74-21.95Q31.74-22.27 32-22.53L32-22.53L32-22.53Q32.77-23.42 33.98-23.42L33.98-23.42L33.98-23.42Q34.69-23.42 35.36-23.17L35.36-23.17L35.36-23.17Q36.03-22.91 36.42-22.78L36.42-22.78L36.42-22.78Q36.80-22.66 37.31-22.46L37.31-22.46L37.31-22.46Q38.72-22.34 39.74-22.34L39.74-22.34L39.74-22.34Q43.97-22.34 47.42-23.68L47.42-23.68L47.42-23.68Q51.84-25.41 53.06-28.86L53.06-28.86L53.06-28.86Q53.82-31.10 53.82-32.90L53.82-32.90L53.82-32.90Q53.82-37.31 49.54-39.49L49.54-39.49L49.54-39.49Q45.82-41.41 39.36-41.41L39.36-41.41L39.36-41.41Q29.18-41.41 21.12-37.57L21.12-37.57L21.12-37.57Q17.02-35.65 13.34-31.87L13.34-31.87L13.34-31.87Q9.66-28.10 9.66-25.41L9.66-25.41L9.66-25.41Q9.66-23.55 10.62-22.34L10.62-22.34L10.62-22.34Q11.01-21.82 11.97-21.06L11.97-21.06L11.97-21.06Q12.29-20.86 11.58-20.86L11.58-20.86L11.58-20.86Q7.62-21.76 7.62-26.18L7.62-26.18L7.62-26.18Q7.62-30.59 12.10-34.50L12.10-34.50L12.10-34.50Q15.42-37.38 19.58-39.17L19.58-39.17L19.58-39.17Q28.22-42.88 39.23-42.88L39.23-42.88L39.23-42.88Q47.10-42.88 51.78-40.58L51.78-40.58L51.78-40.58Q57.22-38.02 57.22-32.83L57.22-32.83L57.22-32.83Q57.22-30.78 56.38-28.67L56.38-28.67L56.38-28.67Q55.04-24.83 49.41-22.85L49.41-22.85L49.41-22.85Q45.18-21.38 40.32-21.31L40.32-21.31L40.32-21.31Q44.10-21.12 46.69-18.53L46.69-18.53L46.69-18.53Q49.28-15.94 49.28-12.10ZM8.38-14.46L8.38-14.46L8.38-14.46Q8.32-14.46 8.06-14.34L8.06-14.34L8.06-14.34Q3.33-7.49 3.33-3.33L3.33-3.33L3.33-3.33Q3.33-1.60 4.16-0.19L4.16-0.19L4.16-0.19Q4.35 0.13 4.80 0.13L4.80 0.13L4.80 0.13Q6.85 0.13 12.67-5.70L12.67-5.70L12.48-5.95L12.48-5.95Q9.92-14.46 8.38-14.46ZM55.68 0.83L55.68 0.83L55.68 0.83Q54.98 0.83 54.40 0.64L54.40 0.64L54.40 0.64Q50.30-0.51 50.30-3.97L50.30-3.97L50.30-3.97Q50.30-8.45 55.94-14.34L55.94-14.34L55.94-14.34Q61.57-20.22 66.05-20.22L66.05-20.22L66.05-20.22Q67.52-20.22 68.45-19.42L68.45-19.42L68.45-19.42Q69.38-18.62 69.38-17.47L69.38-17.47L69.38-17.47Q69.38-13.89 63.97-10.62L63.97-10.62L63.97-10.62Q58.56-7.36 55.17-7.36L55.17-7.36L55.17-7.36Q54.66-7.36 54.27-7.49L54.27-7.49L54.27-7.49Q53.31-5.76 53.31-3.84L53.31-3.84L53.31-3.84Q53.31-0.51 56.48-0.51L56.48-0.51L56.48-0.51Q59.65-0.51 64.70-4.80L64.70-4.80L64.70-4.80Q68.61-7.94 71.36-11.46L71.36-11.46L71.36-11.46Q71.94-12.22 72.35-12.22L72.35-12.22L72.35-12.22Q72.77-12.22 72.77-11.84L72.77-11.84L72.77-11.84Q72.77-11.46 72.26-10.75L72.26-10.75L72.26-10.75Q68.80-6.21 63.94-2.69L63.94-2.69L63.94-2.69Q59.07 0.83 55.68 0.83ZM67.78-17.60L67.78-17.60L67.78-17.60Q67.78-18.37 66.14-18.37L66.14-18.37L66.14-18.37Q64.51-18.37 61.50-15.87L61.50-15.87L61.50-15.87Q57.47-12.54 55.23-8.90L55.23-8.90L55.23-8.90Q55.62-8.77 56.06-8.77L56.06-8.77L56.06-8.77Q58.50-8.77 62.56-11.36L62.56-11.36L62.56-11.36Q66.62-13.95 67.65-17.02L67.65-17.02L67.65-17.02Q67.78-17.34 67.78-17.60ZM85.57-20.61L85.57-20.61L94.78-20.74L94.78-20.74Q94.98-20.61 94.98-20.54L94.98-20.54L94.98-20.54Q94.98-19.97 87.01-18.94L87.01-18.94L87.01-18.94Q79.04-17.92 78.40-17.73L78.40-17.73L78.40-17.73Q77.18-16.64 73.92-11.23L73.92-11.23L73.92-11.23Q70.66-5.82 70.66-3.33L70.66-3.33L70.66-3.33Q70.66-0.96 73.92-0.96L73.92-0.96L73.92-0.96Q75.46-0.96 77.95-1.92L77.95-1.92L77.95-1.92Q80.45-2.88 81.79-3.71L81.79-3.71L81.79-3.71Q85.38-5.95 89.47-10.30L89.47-10.30L89.47-10.30Q90.37-11.20 90.69-11.20L90.69-11.20L90.69-11.20Q90.88-11.20 90.88-10.82L90.88-10.82L90.88-10.82Q90.88-10.43 89.92-9.28L89.92-9.28L89.92-9.28Q86.59-5.18 82.43-2.69L82.43-2.69L82.43-2.69Q77.44 0.38 72.90 0.38L72.90 0.38L72.90 0.38Q70.91 0.38 69.66-0.48L69.66-0.48L69.66-0.48Q68.42-1.34 68.42-3.97L68.42-3.97L68.42-3.97Q68.42-6.59 70.72-11.17L70.72-11.17L70.72-11.17Q73.02-15.74 74.24-17.98L74.24-17.98L74.24-17.98Q73.34-17.79 72.70-17.79L72.70-17.79L72.70-17.79Q70.85-17.79 70.85-19.26L70.85-19.26L70.85-19.26Q70.85-20.35 72.38-20.80L72.38-20.80L72.38-20.80Q72.58-20.80 72.96-20.86L72.96-20.86L76.67-20.86L76.67-20.86Q77.82-22.34 79.30-24.26L79.30-24.26L79.30-24.26Q81.09-26.56 81.73-26.56L81.73-26.56L81.73-26.56Q82.37-26.56 83.33-26.05L83.33-26.05L83.33-26.05Q84.29-25.54 84.29-24.83L84.29-24.83L84.29-24.83Q84.29-24.13 81.22-20.67L81.22-20.67L81.22-20.67Q82.88-20.61 85.57-20.61ZM109.12-19.14L109.12-19.14L110.02-19.33L110.02-19.33Q110.72-19.33 111.36-18.75L111.36-18.75L111.36-18.75Q112-18.18 112-17.86L112-17.86L112-17.86Q112-17.54 108.03-11.68L108.03-11.68L108.03-11.68Q104.06-5.82 104.06-3.52L104.06-3.52L104.06-3.52Q104.06-3.33 104.13-3.14L104.13-3.14L104.13-3.14Q104.45-1.66 105.54-1.66L105.54-1.66L105.54-1.66Q108.86-1.66 117.70-12.67L117.70-12.67L117.70-12.67Q117.89-12.93 118.14-12.93L118.14-12.93L118.14-12.93Q118.40-12.93 118.40-12.45L118.40-12.45L118.40-12.45Q118.40-11.97 117.82-11.20L117.82-11.20L117.82-11.20Q109.63-0.26 105.34-0.26L105.34-0.26L105.34-0.26Q104.77-0.26 104.26-0.45L104.26-0.45L104.26-0.45Q101.44-1.54 101.44-4.67L101.44-4.67L101.44-4.67Q101.44-5.76 101.70-6.85L101.70-6.85L97.73-3.01L97.73-3.01Q93.95 0.32 92.26 0.32L92.26 0.32L92.26 0.32Q90.56 0.32 89.02-0.77L89.02-0.77L89.02-0.77Q87.30-2.05 87.30-4.16L87.30-4.16L87.30-4.16Q87.30-8.83 93.82-15.33L93.82-15.33L93.82-15.33Q100.35-21.82 105.79-21.82L105.79-21.82L105.79-21.82Q107.90-21.82 108.61-20.35L108.61-20.35L108.61-20.35Q108.80-19.84 108.93-19.49L108.93-19.49L108.93-19.49Q109.06-19.14 109.12-19.14ZM89.98-3.39L89.98-3.39L89.98-3.39Q89.98-1.09 91.58-1.09L91.58-1.09L91.58-1.09Q95.30-1.09 101.70-9.22L101.70-9.22L108.48-18.56L108.48-18.56Q107.97-19.46 106.82-19.46L106.82-19.46L106.82-19.46Q102.91-19.46 96.45-13.41L96.45-13.41L96.45-13.41Q89.98-7.36 89.98-3.39ZM135.62-19.52L135.62-19.52L136.51-19.71L136.51-19.71Q137.34-19.71 137.82-19.20L137.82-19.20L137.82-19.20Q138.30-18.69 138.30-18.40L138.30-18.40L138.30-18.40Q138.30-18.11 138.24-17.76L138.24-17.76L138.24-17.76Q138.18-17.41 136.38-14.53L136.38-14.53L136.38-14.53Q134.14-10.62 132.67-7.94L132.67-7.94L132.67-7.94Q127.49 1.73 124.74 5.31L124.74 5.31L124.74 5.31Q118.85 13.12 113.54 13.12L113.54 13.12L113.54 13.12Q111.68 13.12 110.30 11.55L110.30 11.55L110.30 11.55Q108.93 9.98 108.86 8.06L108.86 8.06L108.86 8.06Q109.06 7.30 109.44 7.30L109.44 7.30L109.44 7.30Q109.63 7.30 109.76 7.74L109.76 7.74L109.76 7.74Q110.08 9.41 110.98 10.30L110.98 10.30L110.98 10.30Q111.87 11.20 112.77 11.20L112.77 11.20L112.77 11.20Q116.42 11.20 120.58 6.40L120.58 6.40L120.58 6.40Q123.33 3.20 126.66-2.94L126.66-2.94L129.86-9.28L125.06-4.42L125.06-4.42Q120.45 0 118.75 0L118.75 0L118.75 0Q117.06 0 115.52-1.15L115.52-1.15L115.52-1.15Q113.79-2.43 113.79-4.54L113.79-4.54L113.79-4.54Q113.79-9.22 120.35-15.68L120.35-15.68L120.35-15.68Q126.91-22.14 132.29-22.14L132.29-22.14L132.29-22.14Q134.46-22.14 135.10-20.74L135.10-20.74L135.10-20.74Q135.30-20.22 135.42-19.87L135.42-19.87L135.42-19.87Q135.55-19.52 135.62-19.52ZM116.48-3.78L116.48-3.78L116.48-3.78Q116.48-1.47 118.08-1.47L118.08-1.47L118.08-1.47Q121.79-1.47 128.19-9.60L128.19-9.60L134.98-18.94L134.98-18.94Q134.59-19.84 133.38-19.84L133.38-19.84L133.38-19.84Q129.41-19.84 122.94-13.73L122.94-13.73L122.94-13.73Q116.48-7.62 116.48-3.78ZM150.98 0.32L150.98 0.32L150.98 0.32Q146.18 0.32 146.18-4.99L146.18-4.99L146.18-4.99Q146.18-7.68 147.58-10.88L147.58-10.88L147.58-10.88Q148.99-14.08 150.66-16.26L150.66-16.26L150.66-16.26Q150.34-16.19 149.82-16.19L149.82-16.19L149.82-16.19Q148.29-16.19 147.26-18.37L147.26-18.37L142.53-12.22L142.53-12.22Q138.56-7.30 137.92-7.30L137.92-7.30L137.92-7.30Q137.60-7.30 137.60-7.55L137.60-7.55L137.60-7.55Q137.60-8.19 138.69-9.41L138.69-9.41L138.69-9.41Q144.26-15.87 146.56-20.35L146.56-20.35L146.56-20.35Q148.03-25.92 150.27-25.92L150.27-25.92L150.27-25.92Q151.74-25.92 151.74-24.64L151.74-24.64L151.74-24.64Q151.74-23.36 150.14-21.38L150.14-21.38L148.61-19.33L148.61-19.33Q148.61-17.98 150.59-17.98L150.59-17.98L150.59-17.98Q151.74-17.98 153.15-18.82L153.15-18.82L154.82-19.84L154.82-19.84Q154.94-19.90 155.46-19.90L155.46-19.90L155.46-19.90Q155.97-19.90 156.54-19.26L156.54-19.26L156.54-19.26Q157.12-18.62 156.93-18.11L156.93-18.11L152.51-12.54L152.51-12.54Q148.42-7.30 148.42-4.26L148.42-4.26L148.42-4.26Q148.42-1.22 151.23-1.22L151.23-1.22L151.23-1.22Q154.18-1.22 158.46-4.35L158.46-4.35L158.46-4.35Q161.02-6.21 163.14-8.51L163.14-8.51L163.14-8.51Q165.12-10.82 165.31-10.82L165.31-10.82L165.31-10.82Q165.76-10.82 165.76-10.34L165.76-10.34L165.76-10.34Q165.76-9.86 165.18-9.22L165.18-9.22L163.14-6.91L163.14-6.91Q161.41-5.12 159.30-3.46L159.30-3.46L159.30-3.46Q154.24 0.32 150.98 0.32ZM184.38-19.14L184.38-19.14L185.28-19.33L185.28-19.33Q185.98-19.33 186.62-18.75L186.62-18.75L186.62-18.75Q187.26-18.18 187.26-17.86L187.26-17.86L187.26-17.86Q187.26-17.54 183.30-11.68L183.30-11.68L183.30-11.68Q179.33-5.82 179.33-3.52L179.33-3.52L179.33-3.52Q179.33-3.33 179.39-3.14L179.39-3.14L179.39-3.14Q179.71-1.66 180.80-1.66L180.80-1.66L180.80-1.66Q184.13-1.66 192.96-12.67L192.96-12.67L192.96-12.67Q193.15-12.93 193.41-12.93L193.41-12.93L193.41-12.93Q193.66-12.93 193.66-12.45L193.66-12.45L193.66-12.45Q193.66-11.97 193.09-11.20L193.09-11.20L193.09-11.20Q184.90-0.26 180.61-0.26L180.61-0.26L180.61-0.26Q180.03-0.26 179.52-0.45L179.52-0.45L179.52-0.45Q176.70-1.54 176.70-4.67L176.70-4.67L176.70-4.67Q176.70-5.76 176.96-6.85L176.96-6.85L172.99-3.01L172.99-3.01Q169.22 0.32 167.52 0.32L167.52 0.32L167.52 0.32Q165.82 0.32 164.29-0.77L164.29-0.77L164.29-0.77Q162.56-2.05 162.56-4.16L162.56-4.16L162.56-4.16Q162.56-8.83 169.09-15.33L169.09-15.33L169.09-15.33Q175.62-21.82 181.06-21.82L181.06-21.82L181.06-21.82Q183.17-21.82 183.87-20.35L183.87-20.35L183.87-20.35Q184.06-19.84 184.19-19.49L184.19-19.49L184.19-19.49Q184.32-19.14 184.38-19.14ZM165.25-3.39L165.25-3.39L165.25-3.39Q165.25-1.09 166.85-1.09L166.85-1.09L166.85-1.09Q170.56-1.09 176.96-9.22L176.96-9.22L183.74-18.56L183.74-18.56Q183.23-19.46 182.08-19.46L182.08-19.46L182.08-19.46Q178.18-19.46 171.71-13.41L171.71-13.41L171.71-13.41Q165.25-7.36 165.25-3.39ZM220.10-0.77L220.10-0.77L220.10-0.77Q215.74-0.77 215.74-4.80L215.74-4.80L215.74-4.80Q215.74-7.10 217.79-11.10L217.79-11.10L217.79-11.10Q219.84-15.10 222.08-17.86L222.08-17.86L222.08-17.86Q218.11-15.94 212.93-10.91L212.93-10.91L212.93-10.91Q207.74-5.89 205.70-0.38L205.70-0.38L205.70-0.38Q205.38 0.13 204.61 0.13L204.61 0.13L204.61 0.13Q203.07 0.13 203.07-1.60L203.07-1.60L203.07-1.60Q203.71-5.12 205.95-9.66L205.95-9.66L205.95-9.66Q206.66-11.14 210.11-18.24L210.11-18.24L210.11-18.24Q205.12-14.98 201.63-11.23L201.63-11.23L201.63-11.23Q198.14-7.49 195.17-3.71L195.17-3.71L195.17-3.71Q192.19 0.06 191.81 0.06L191.81 0.06L191.81 0.06Q190.98 0.06 190.37-0.70L190.37-0.70L190.37-0.70Q189.76-1.47 189.76-2.24L189.76-2.24L189.76-2.24Q189.76-3.39 193.09-10.69L193.09-10.69L189.25-6.66L189.25-6.66Q187.84-5.25 187.49-5.25L187.49-5.25L187.49-5.25Q187.14-5.25 187.14-5.66L187.14-5.66L187.14-5.66Q187.14-6.08 187.65-6.59L187.65-6.59L187.65-6.59Q190.02-8.96 191.87-11.33L191.87-11.33L191.87-11.33Q193.73-13.70 198.02-19.78L198.02-19.78L198.02-19.78Q198.72-20.74 200.00-20.74L200.00-20.74L200.00-20.74Q201.28-20.74 201.28-19.52L201.28-19.52L201.28-19.52Q201.28-19.07 197.89-13.28L197.89-13.28L197.89-13.28Q194.50-7.49 194.11-6.02L194.11-6.02L194.11-6.02Q196.74-8.90 201.98-13.76L201.98-13.76L201.98-13.76Q209.86-21.06 212.35-21.06L212.35-21.06L212.35-21.06Q213.12-21.06 213.76-20.61L213.76-20.61L213.76-20.61Q214.40-20.16 214.40-19.62L214.40-19.62L214.40-19.62Q214.40-19.07 211.90-14.78L211.90-14.78L211.90-14.78Q209.47-10.37 209.22-9.54L209.22-9.54L209.22-9.54Q216.32-15.49 216.32-15.55L216.32-15.55L216.32-15.55Q222.34-20.22 224.96-20.22L224.96-20.22L224.96-20.22Q225.73-20.22 226.40-19.74L226.40-19.74L226.40-19.74Q227.07-19.26 227.07-18.62L227.07-18.62L227.07-18.62Q227.07-18.50 222.91-13.22L222.91-13.22L222.91-13.22Q218.75-7.94 218.24-4.54L218.24-4.54L218.24-4.54Q218.11-3.39 218.69-2.82L218.69-2.82L218.69-2.82Q219.26-2.24 220.77-2.24L220.77-2.24L220.77-2.24Q222.27-2.24 225.18-4.32L225.18-4.32L225.18-4.32Q228.10-6.40 231.10-9.92L231.10-9.92L231.10-9.92Q232.26-11.20 232.67-11.20L232.67-11.20L232.67-11.20Q233.09-11.20 233.09-10.88L233.09-10.88L233.09-10.88Q233.09-10.43 232.51-9.86L232.51-9.86L232.51-9.86Q229.38-6.08 225.76-3.42L225.76-3.42L225.76-3.42Q222.14-0.77 220.10-0.77Z" fill="url(#editing-shiny-gradient2)"></path></g></g><style>text {
  font-size: 64px;
  font-family: Arial Black;
  dominant-baseline: central;
  text-anchor: middle;
}</style></svg>