<svg width="252.76958618164062px" height="129.44000549316405px" xmlns="http://www.w3.org/2000/svg" viewBox="123.61520690917969 10.279997253417974 252.76958618164062 129.44000549316405" style="background: rgba(0, 0, 0, 0);" preserveAspectRatio="xMidYMid"><defs><linearGradient id="editing-shiny-gradient" x1="0.04322727117869957" x2="0.9567727288213004" y1="0.2966316784620999" y2="0.7033683215379001" gradientUnits="objectBoundingBox"><stop offset="0.0" stop-color="#ffb200"></stop><stop offset="0.5" stop-color="#e10057"></stop><stop offset="1.0" stop-color="#5A1A80"></stop></linearGradient><linearGradient id="editing-shiny-gradient2" x1="0" x2="0" y1="0" y2="1"><stop offset="0.2" stop-color="#fff" stop-opacity="0.8"></stop><stop offset="0.8" stop-color="#fff" stop-opacity="0"></stop></linearGradient><filter id="editing-shiny2" x="-100%" y="-100%" width="300%" height="300%"><feMorphology operator="erode" radius="2"></feMorphology></filter><filter id="editing-shiny" x="-100%" y="-100%" width="300%" height="300%"><feFlood flood-color="#fff" result="flood"></feFlood><feConvolveMatrix in="SourceGraphic" result="conv" order="8,8" divisor="1" kernelMatrix="0 0 0 0 0 0 0 0 0 0 0 1 1 0 0 0 0 0 0 1 1 0 0 0 0 0 1 0 0 1 0 0 0 0 1 0 0 1 0 0 0 1 0 0 0 0 1 0 0 1 1 0 0 1 1 0 0 0 0 1 1 0 0 0 "></feConvolveMatrix><feOffset dx="0" dy="4" in="conv" result="offset"></feOffset><feComposite operator="in" in="flood" in2="offset" result="comp"></feComposite><feGaussianBlur in="offset" stdDeviation="3" result="shadow"></feGaussianBlur><feColorMatrix in="shadow" type="matrix" values="0.7 0 0 0 0  0 0.7 0 0 0  0 0 0.7 0 0  0 0 0 0.3 0" result="dark-shadow"></feColorMatrix><feOffset dx="0" dy="4" in="dark-shadow" result="offset-shadow"></feOffset><feOffset dx="0" dy="2" in="conv" result="offset-2"></feOffset><feComposite operator="out" in="offset" in2="offset-2" result="edge-diff"></feComposite><feGaussianBlur in="edge-diff" stdDeviation="1" result="edge-blur"></feGaussianBlur><feColorMatrix in="edge-blur" result="edge-shadow" type="matrix" values="0 0 0 0 0  0 0 0 0 0  0 0 0 0 0  0 0 0 0.5 0"></feColorMatrix><feComposite operator="in" in="edge-shadow" in2="offset" result="edge-shadow-in"></feComposite><feOffset dx="0" dy="1" in="edge-shadow-in" result="edge-shadow-final"></feOffset><feMerge result="out"><feMergeNode in="offset-shadow"></feMergeNode><feMergeNode in="comp"></feMergeNode><feMergeNode in="edge-shadow-final"></feMergeNode><feMergeNode in="SourceGraphic"></feMergeNode></feMerge></filter></defs><g filter="url(#editing-shiny)"><g transform="translate(166.55401122570038, 103.63999938964844)"><path d="M26.56-34.82L26.56-34.82L29.12-34.88L29.12-34.88Q31.17-34.88 33.34-34.18L33.34-34.18L33.34-34.18Q37.44-32.90 37.44-28.61L37.44-28.61L37.44-28.61Q37.44-25.73 35.26-22.91L35.26-22.91L35.26-22.91Q32.26-19.20 27.46-18.11L27.46-18.11L27.46-18.11Q27.33-18.11 27.33-17.92L27.33-17.92L27.33-17.92Q27.33-17.73 27.46-17.73L27.46-17.73L27.46-17.73Q27.58-17.73 28.06-17.66L28.06-17.66L28.06-17.66Q28.54-17.60 29.09-17.50L29.09-17.50L29.09-17.50Q29.63-17.41 30.02-17.34L30.02-17.34L30.02-17.34Q32.38-16.83 33.82-15.36L33.82-15.36L33.82-15.36Q35.26-13.89 35.26-11.58L35.26-11.58L35.26-11.58Q35.26-7.68 32.38-4.61L32.38-4.61L32.38-4.61Q27.07 1.09 18.43 1.09L18.43 1.09L18.43 1.09Q12.61 1.09 8.83-0.90L8.83-0.90L8.83-0.90Q7.87-1.41 6.91-1.41L6.91-1.41L6.91-1.41Q5.95-1.41 5.38-1.12L5.38-1.12L5.38-1.12Q4.80-0.83 3.46 0L3.46 0L3.46 0Q1.41 1.22 0.64 1.22L0.64 1.22L0.64 1.22Q-0.13 1.22-0.13 0.83L-0.13 0.83L-0.13 0.83Q-0.13 0.70 0 0.64L0 0.64L0 0.64Q2.62 0.19 4.10-2.43L4.10-2.43L4.10-2.43Q6.34-6.21 11.42-15.52L11.42-15.52L11.42-15.52Q16.51-24.83 17.98-27.87L17.98-27.87L17.98-27.87Q19.46-30.91 19.71-31.42L19.71-31.42L19.71-31.42Q20.54-32.96 23.49-33.98L23.49-33.98L23.49-33.98Q22.53-34.05 20.16-34.05L20.16-34.05L20.16-34.05Q17.79-34.05 12.93-33.15L12.93-33.15L12.93-33.15Q6.27-31.94 6.27-27.84L6.27-27.84L6.27-27.84Q6.27-26.30 7.30-25.66L7.30-25.66L7.30-25.66Q7.62-25.54 7.26-25.31L7.26-25.31L7.26-25.31Q6.91-25.09 6.53-25.31L6.53-25.31L6.53-25.31Q6.14-25.54 5.31-26.75L5.31-26.75L5.31-26.75Q4.03-28.67 4.03-30.08L4.03-30.08L4.03-30.08Q4.03-31.49 4.77-32.54L4.77-32.54L4.77-32.54Q5.50-33.60 7.68-34.05L7.68-34.05L7.68-34.05Q10.94-34.82 14.78-34.82L14.78-34.82L14.78-34.82Q14.91-34.82 14.98-34.82L14.98-34.82L24.51-34.88L24.51-34.88Q25.47-34.82 26.56-34.82ZM28.45-19.74L28.45-19.74L28.45-19.74Q30.21-20.42 31.39-21.86L31.39-21.86L31.39-21.86Q32.58-23.30 33.31-25.28L33.31-25.28L33.31-25.28Q34.05-27.26 34.05-28.54L34.05-28.54L34.05-28.54Q34.05-33.22 30.21-33.79L30.21-33.79L30.21-33.79Q29.63-33.86 28.80-33.86L28.80-33.86L28.80-33.86Q25.47-33.86 24.26-32.35L24.26-32.35L24.26-32.35Q23.04-30.85 21.79-28.70L21.79-28.70L21.79-28.70Q20.54-26.56 19.71-24.99L19.71-24.99L19.71-24.99Q18.88-23.42 17.57-20.77L17.57-20.77L17.57-20.77Q16.26-18.11 14.02-13.76L14.02-13.76L14.02-13.76Q11.78-9.41 9.73-5.31L9.73-5.31L9.73-5.31Q9.41-4.61 9.41-3.90L9.41-3.90L9.41-3.90Q9.41-2.50 10.94-1.34L10.94-1.34L10.94-1.34Q13.57 0.19 16.38 0.19L16.38 0.19L16.38 0.19Q19.52 0.19 23.01-1.15L23.01-1.15L23.01-1.15Q26.50-2.50 29.02-5.54L29.02-5.54L29.02-5.54Q31.55-8.58 31.55-12.54L31.55-12.54L31.55-12.54Q31.55-15.04 29.70-16.10L29.70-16.10L29.70-16.10Q27.84-17.15 25.86-17.15L25.86-17.15L25.86-17.15Q21.95-17.15 17.60-16L17.60-16L17.60-16Q17.54-16 17.54-16.13L17.54-16.13L17.54-16.13Q17.54-16.45 18.43-17.18L18.43-17.18L18.43-17.18Q19.33-17.92 19.71-18.30L19.71-18.30L19.71-18.30Q20.10-18.69 20.61-18.69L20.61-18.69L20.61-18.69Q23.36-18.69 25.02-18.88L25.02-18.88L25.02-18.88Q26.69-19.07 28.45-19.74ZM41.34-7.62L41.34-7.62L41.34-7.62Q40.38-5.12 40.38-2.98L40.38-2.98L40.38-2.98Q40.38-0.83 43.01-0.83L43.01-0.83L43.01-0.83Q43.97-0.83 45.50-1.41L45.50-1.41L45.50-1.41Q48-2.24 50.69-4.61L50.69-4.61L50.69-4.61Q53.38-6.98 55.10-9.22L55.10-9.22L55.10-9.22Q55.30-9.02 55.30-8.70L55.30-8.70L55.30-8.70Q55.30-8.38 54.85-7.74L54.85-7.74L54.85-7.74Q52.48-4.48 48.96-1.98L48.96-1.98L48.96-1.98Q45.44 0.51 41.79 0.51L41.79 0.51L41.79 0.51Q37.06 0.51 37.06-2.94L37.06-2.94L37.06-2.94Q37.06-5.70 40-10.56L40-10.56L40-10.56Q41.66-13.18 44.74-15.46L44.74-15.46L44.74-15.46Q47.81-17.73 50.62-17.73L50.62-17.73L50.62-17.73Q53.44-17.73 53.44-15.04L53.44-15.04L53.44-15.04Q53.44-12.22 51.23-10.78L51.23-10.78L51.23-10.78Q49.02-9.34 46.24-8.48L46.24-8.48L46.24-8.48Q43.46-7.62 41.34-7.62ZM41.86-8.90L41.86-8.90L41.86-8.90Q42.24-8.90 43.30-8.90L43.30-8.90L43.30-8.90Q44.35-8.90 45.82-9.34L45.82-9.34L45.82-9.34Q49.47-10.43 50.56-13.44L50.56-13.44L50.56-13.44Q50.88-14.34 50.88-15.14L50.88-15.14L50.88-15.14Q50.88-15.94 50.37-16.29L50.37-16.29L50.37-16.29Q49.86-16.64 49.47-16.64L49.47-16.64L49.47-16.64Q45.31-16.58 41.86-8.90ZM58.88-17.54L59.33-17.54L61.31-17.47L61.31-17.47Q63.81-20.86 66.30-26.37L66.30-26.37L66.30-26.37Q66.88-26.43 68.10-27.10L68.10-27.10L68.10-27.10Q69.31-27.78 69.86-28.32L69.86-28.32L69.86-28.32Q70.40-28.86 70.56-28.86L70.56-28.86L70.56-28.86Q70.72-28.86 70.72-28.70L70.72-28.70L70.72-28.70Q70.72-28.54 70.21-27.97L70.21-27.97L70.21-27.97Q69.70-27.39 67.68-24.16L67.68-24.16L67.68-24.16Q65.66-20.93 64-17.47L64-17.47L69.18-17.47L69.18-17.47Q69.82-17.47 69.89-17.28L69.89-17.28L69.89-17.28Q69.95-17.09 69.47-16.93L69.47-16.93L69.47-16.93Q68.99-16.77 68.58-16.64L68.58-16.64L68.58-16.64Q68.16-16.51 66.75-16.38L66.75-16.38L66.75-16.38Q63.62-16.19 62.88-15.14L62.88-15.14L62.88-15.14Q62.14-14.08 60.35-9.73L60.35-9.73L60.35-9.73Q57.02-1.66 59.33-1.66L59.33-1.66L59.33-1.66Q61.31-1.66 66.62-7.81L66.62-7.81L67.84-9.34L67.84-9.34Q67.97-9.15 67.97-8.74L67.97-8.74L67.97-8.74Q67.97-8.32 67.26-7.36L67.26-7.36L67.26-7.36Q61.38 0.19 56.64 0.19L56.64 0.19L56.64 0.19Q55.10 0.19 55.10-1.02L55.10-1.02L55.10-1.02Q55.10-2.56 57.60-7.55L57.60-7.55L61.06-15.30L61.06-15.30Q54.53-7.36 54.40-7.17L54.40-7.17L54.40-7.17Q53.95-6.53 53.95-7.30L53.95-7.30L53.95-7.30Q53.95-7.81 54.27-8.19L54.27-8.19L54.27-8.19Q58.62-13.63 60.29-15.81L60.29-15.81L60.29-15.81Q59.71-15.81 56.83-15.49L56.83-15.49L56.83-15.49Q56.19-15.49 57.31-16.51L57.31-16.51L57.31-16.51Q58.43-17.54 58.88-17.54L58.88-17.54ZM86.78-9.47L86.78-9.47L86.78-9.47Q86.91-9.34 86.91-8.96L86.91-8.96L86.91-8.96Q86.91-8.58 86.02-7.36L86.02-7.36L86.02-7.36Q80.32 0.19 75.46 0.19L75.46 0.19L75.46 0.19Q73.92 0.19 73.92-1.02L73.92-1.02L73.92-1.02Q73.92-3.26 76.42-7.17L76.42-7.17L76.42-7.17Q74.18-4.80 71.30-2.34L71.30-2.34L71.30-2.34Q68.42 0.13 65.92 0.13L65.92 0.13L65.92 0.13Q64.77 0.13 64.77-1.28L64.77-1.28L64.77-1.28Q64.77-1.60 64.83-1.73L64.83-1.73L64.83-1.73Q65.28-5.38 67.78-9.41L67.78-9.41L67.78-9.41Q72.77-17.47 78.14-17.47L78.14-17.47L85.50-17.47L85.50-17.47Q85.82-17.47 85.82-17.22L85.82-17.22L85.82-17.22Q85.82-16.70 85.25-16.70L85.25-16.70L85.25-16.70Q84.35-16.70 83.01-14.62L83.01-14.62L83.01-14.62Q81.66-12.54 79.46-8.22L79.46-8.22L79.46-8.22Q77.25-3.90 77.25-2.78L77.25-2.78L77.25-2.78Q77.25-1.66 78.14-1.66L78.14-1.66L78.14-1.66Q79.62-1.66 82.24-4.22L82.24-4.22L82.24-4.22Q83.65-5.70 84.35-6.53L84.35-6.53L84.35-6.53Q85.06-7.36 85.28-7.62L85.28-7.62L85.28-7.62Q85.50-7.87 86.78-9.47ZM79.94-15.42L79.94-15.42L79.94-15.42Q79.94-16.64 78.30-16.64L78.30-16.64L78.30-16.64Q76.67-16.64 74.69-14.78L74.69-14.78L74.69-14.78Q72.70-12.93 70.37-8.80L70.37-8.80L70.37-8.80Q68.03-4.67 68.03-2.82L68.03-2.82L68.03-2.82Q68.03-2.05 68.54-2.05L68.54-2.05L68.54-2.05Q70.40-2.05 75.17-7.71L75.17-7.71L75.17-7.71Q79.94-13.38 79.94-15.42ZM66.30 12.35L66.30 12.35L66.18 13.95L66.18 13.95Q66.18 16.83 68.00 18.40L68.00 18.40L68.00 18.40Q69.82 19.97 72.42 19.97L72.42 19.97L72.42 19.97Q75.01 19.97 77.09 19.10L77.09 19.10L77.09 19.10Q79.17 18.24 80.77 17.22L80.77 17.22L80.77 17.22Q82.37 16.19 83.84 14.59L83.84 14.59L83.84 14.59Q85.31 12.99 86.40 11.81L86.40 11.81L86.40 11.81Q87.49 10.62 88.80 8.32L88.80 8.32L88.80 8.32Q90.11 6.02 90.78 4.93L90.78 4.93L90.78 4.93Q91.46 3.84 92.67 1.02L92.67 1.02L92.67 1.02Q93.89-1.79 94.24-2.59L94.24-2.59L94.24-2.59Q94.59-3.39 95.81-6.46L95.81-6.46L95.81-6.46Q97.02-9.54 97.15-9.92L97.15-9.92L97.15-9.92Q95.04-6.46 91.17-3.17L91.17-3.17L91.17-3.17Q87.30 0.13 84.86 0.13L84.86 0.13L84.86 0.13Q83.71 0.13 83.71-1.28L83.71-1.28L83.71-1.73L83.71-1.73Q84.16-5.31 86.72-9.47L86.72-9.47L86.72-9.47Q91.71-17.47 97.09-17.47L97.09-17.47L104.45-17.47L104.45-17.47Q104.77-17.47 104.77-17.22L104.77-17.22L104.77-17.22Q104.77-16.70 104.19-16.70L104.19-16.70L104.19-16.70Q102.78-16.70 101.89-15.04L101.89-15.04L101.89-15.04Q100.16-12.29 95.84-2.21L95.84-2.21L95.84-2.21Q91.52 7.87 89.79 10.91L89.79 10.91L89.79 10.91Q88.06 13.95 85.18 16.96L85.18 16.96L85.18 16.96Q80.06 22.40 74.11 22.40L74.11 22.40L74.11 22.40Q71.55 22.40 69.31 21.25L69.31 21.25L69.31 21.25Q65.34 19.14 65.34 14.27L65.34 14.27L65.34 13.18L65.34 13.18Q65.34 12.22 66.18 12.22L66.18 12.22L66.18 12.22Q66.30 12.22 66.30 12.35ZM98.82-15.42L98.82-15.42L98.82-15.42Q98.82-16.64 97.22-16.64L97.22-16.64L97.22-16.64Q95.62-16.64 93.63-14.78L93.63-14.78L93.63-14.78Q91.65-12.93 89.28-8.80L89.28-8.80L89.28-8.80Q86.91-4.67 86.91-2.82L86.91-2.82L86.91-2.82Q86.91-2.05 87.49-2.05L87.49-2.05L87.49-2.05Q89.34-2.05 94.08-7.71L94.08-7.71L94.08-7.71Q98.82-13.38 98.82-15.42ZM119.17-12.67L119.17-12.67L119.17-12.67Q119.17-15.62 117.34-15.62L117.34-15.62L117.34-15.62Q115.52-15.62 112.16-11.74L112.16-11.74L112.16-11.74Q108.80-7.87 107.07-3.46L107.07-3.46L105.73 0.13L105.73 0.13Q105.34 0.13 104.19 0.51L104.19 0.51L104.19 0.51Q103.04 0.90 102.98 0.90L102.98 0.90L102.98 0.90Q102.66 0.90 102.94 0.32L102.94 0.32L102.94 0.32Q103.23-0.26 104.03-2.18L104.03-2.18L104.03-2.18Q104.83-4.10 105.98-7.04L105.98-7.04L105.98-7.04Q108.22-12.67 108.99-14.46L108.99-14.46L108.99-14.46Q105.60-10.82 102.85-7.17L102.85-7.17L102.85-7.17Q102.40-6.53 102.40-7.30L102.40-7.30L102.40-7.30Q102.40-7.81 102.72-8.19L102.72-8.19L102.72-8.19Q107.26-13.82 109.70-17.34L109.70-17.34L109.70-17.34Q112.90-17.79 113.41-18.24L113.41-18.24L113.41-18.24Q113.92-18.69 114.05-18.69L114.05-18.69L114.05-18.69Q114.18-18.69 114.21-18.43L114.21-18.43L114.21-18.43Q114.24-18.18 113.86-17.73L113.86-17.73L113.86-17.73Q113.47-17.28 109.57-10.11L109.57-10.11L109.57-10.11Q111.30-12.74 113.95-15.30L113.95-15.30L113.95-15.30Q116.61-17.86 118.50-17.86L118.50-17.86L118.50-17.86Q120.38-17.86 120.96-16.26L120.96-16.26L120.96-16.26Q121.22-15.94 121.22-15.55L121.22-15.55L121.22-15.55Q121.22-15.17 121.09-14.56L121.09-14.56L121.09-14.56Q120.96-13.95 120.83-13.57L120.83-13.57L120.83-13.57Q120.13-11.97 119.81-11.65L119.81-11.65L119.81-11.65Q119.62-11.33 119.17-11.26L119.17-11.26L119.17-11.26Q119.10-11.33 119.04-11.39L119.04-11.39L119.04-11.39Q119.17-12.10 119.17-12.67ZM139.97-9.47L139.97-9.47L139.97-9.47Q140.10-9.34 140.10-8.96L140.10-8.96L140.10-8.96Q140.10-8.58 139.20-7.36L139.20-7.36L139.20-7.36Q133.50 0.19 128.64 0.19L128.64 0.19L128.64 0.19Q127.10 0.19 127.10-1.02L127.10-1.02L127.10-1.02Q127.10-3.26 129.60-7.17L129.60-7.17L129.60-7.17Q127.36-4.80 124.48-2.34L124.48-2.34L124.48-2.34Q121.60 0.13 119.10 0.13L119.10 0.13L119.10 0.13Q117.95 0.13 117.95-1.28L117.95-1.28L117.95-1.28Q117.95-1.60 118.02-1.73L118.02-1.73L118.02-1.73Q118.46-5.38 120.96-9.41L120.96-9.41L120.96-9.41Q125.95-17.47 131.33-17.47L131.33-17.47L138.69-17.47L138.69-17.47Q139.01-17.47 139.01-17.22L139.01-17.22L139.01-17.22Q139.01-16.70 138.43-16.70L138.43-16.70L138.43-16.70Q137.54-16.70 136.19-14.62L136.19-14.62L136.19-14.62Q134.85-12.54 132.64-8.22L132.64-8.22L132.64-8.22Q130.43-3.90 130.43-2.78L130.43-2.78L130.43-2.78Q130.43-1.66 131.33-1.66L131.33-1.66L131.33-1.66Q132.80-1.66 135.42-4.22L135.42-4.22L135.42-4.22Q136.83-5.70 137.54-6.53L137.54-6.53L137.54-6.53Q138.24-7.36 138.46-7.62L138.46-7.62L138.46-7.62Q138.69-7.87 139.97-9.47ZM133.12-15.42L133.12-15.42L133.12-15.42Q133.12-16.64 131.49-16.64L131.49-16.64L131.49-16.64Q129.86-16.64 127.87-14.78L127.87-14.78L127.87-14.78Q125.89-12.93 123.55-8.80L123.55-8.80L123.55-8.80Q121.22-4.67 121.22-2.82L121.22-2.82L121.22-2.82Q121.22-2.05 121.73-2.05L121.73-2.05L121.73-2.05Q123.58-2.05 128.35-7.71L128.35-7.71L128.35-7.71Q133.12-13.38 133.12-15.42ZM167.10-16.58L167.10-16.58L167.10-16.58Q167.10-15.74 166.02-14.14L166.02-14.14L166.02-14.14Q164.93-12.54 162.72-8.22L162.72-8.22L162.72-8.22Q160.51-3.90 160.51-2.78L160.51-2.78L160.51-2.78Q160.51-1.66 161.41-1.66L161.41-1.66L161.41-1.66Q162.56-1.66 164.64-3.55L164.64-3.55L164.64-3.55Q166.72-5.44 168.26-7.23L168.26-7.23L168.26-7.23Q169.79-9.02 169.98-9.41L169.98-9.41L169.98-9.41Q170.11-9.22 170.11-8.83L170.11-8.83L170.11-8.83Q170.11-8.45 169.28-7.36L169.28-7.36L169.28-7.36Q163.90-0.13 159.10 0.26L159.10 0.26L159.10 0.26Q158.34 0.32 157.76-0.03L157.76-0.03L157.76-0.03Q157.18-0.38 157.18-0.99L157.18-0.99L157.18-0.99Q157.18-1.60 157.50-2.59L157.50-2.59L157.50-2.59Q157.82-3.58 158.14-4.29L158.14-4.29L158.14-4.29Q159.49-7.30 160.67-9.54L160.67-9.54L160.67-9.54Q161.86-11.78 163.14-14.59L163.14-14.59L163.14-14.59Q163.78-15.94 162.24-15.10L162.24-15.10L162.24-15.10Q158.14-12.54 153.73-6.40L153.73-6.40L153.73-6.40Q151.49-3.39 150.85-1.09L150.85-1.09L150.85-1.09Q149.95-0.32 149.28-0.58L149.28-0.58L149.28-0.58Q148.61-0.83 148.61-1.89L148.61-1.89L148.61-1.89Q148.61-2.94 150.72-7.55L150.72-7.55L150.72-7.55Q152.90-11.78 154.18-14.59L154.18-14.59L154.18-14.59Q154.82-15.94 153.28-15.10L153.28-15.10L153.28-15.10Q151.17-13.76 148.26-10.82L148.26-10.82L148.26-10.82Q145.34-7.87 144-4.80L144-4.80L144-4.80Q143.42-3.46 141.95 0.13L141.95 0.13L141.95 0.13Q141.57 0.13 140.45 0.54L140.45 0.54L140.45 0.54Q139.33 0.96 139.14 0.96L139.14 0.96L139.14 0.96Q138.88 0.96 139.17 0.35L139.17 0.35L139.17 0.35Q139.46-0.26 140.26-2.18L140.26-2.18L140.26-2.18Q141.06-4.10 142.21-7.04L142.21-7.04L142.21-7.04Q144.45-12.67 145.22-14.46L145.22-14.46L145.22-14.46Q141.82-10.82 139.07-7.17L139.07-7.17L139.07-7.17Q138.62-6.53 138.62-7.30L138.62-7.30L138.62-7.30Q138.62-7.81 138.94-8.19L138.94-8.19L138.94-8.19Q143.49-13.82 145.92-17.34L145.92-17.34L145.92-17.34Q149.12-17.79 149.63-18.24L149.63-18.24L149.63-18.24Q150.14-18.69 150.27-18.69L150.27-18.69L150.27-18.69Q150.40-18.69 150.43-18.43L150.43-18.43L150.43-18.43Q150.46-18.18 150.05-17.70L150.05-17.70L150.05-17.70Q149.63-17.22 145.02-8.64L145.02-8.64L145.02-8.64Q145.41-9.09 148.42-12.48L148.42-12.48L148.42-12.48Q149.89-14.02 152.19-15.74L152.19-15.74L152.19-15.74Q154.82-17.66 156.74-17.66L156.74-17.66L156.74-17.66Q157.95-17.66 157.95-16.70L157.95-16.70L157.95-16.70Q157.95-15.87 157.25-14.85L157.25-14.85L154.37-9.47L157.38-12.48L157.38-12.48Q158.85-14.02 161.15-15.74L161.15-15.74L161.15-15.74Q163.78-17.66 165.44-17.66L165.44-17.66L165.44-17.66Q167.10-17.66 167.10-16.58Z" fill="url(#editing-shiny-gradient)"></path></g></g><g filter="url(#editing-shiny2)"><g transform="translate(166.77076995372772, 103.63999938964844)"><path d="M26.56-34.82L26.56-34.82L29.12-34.88L29.12-34.88Q31.17-34.88 33.34-34.18L33.34-34.18L33.34-34.18Q37.44-32.90 37.44-28.61L37.44-28.61L37.44-28.61Q37.44-25.73 35.26-22.91L35.26-22.91L35.26-22.91Q32.26-19.20 27.46-18.11L27.46-18.11L27.46-18.11Q27.33-18.11 27.33-17.92L27.33-17.92L27.33-17.92Q27.33-17.73 27.46-17.73L27.46-17.73L27.46-17.73Q27.58-17.73 28.06-17.66L28.06-17.66L28.06-17.66Q28.54-17.60 29.09-17.50L29.09-17.50L29.09-17.50Q29.63-17.41 30.02-17.34L30.02-17.34L30.02-17.34Q32.38-16.83 33.82-15.36L33.82-15.36L33.82-15.36Q35.26-13.89 35.26-11.58L35.26-11.58L35.26-11.58Q35.26-7.68 32.38-4.61L32.38-4.61L32.38-4.61Q27.07 1.09 18.43 1.09L18.43 1.09L18.43 1.09Q12.61 1.09 8.83-0.90L8.83-0.90L8.83-0.90Q7.87-1.41 6.91-1.41L6.91-1.41L6.91-1.41Q5.95-1.41 5.38-1.12L5.38-1.12L5.38-1.12Q4.80-0.83 3.46 0L3.46 0L3.46 0Q1.41 1.22 0.64 1.22L0.64 1.22L0.64 1.22Q-0.13 1.22-0.13 0.83L-0.13 0.83L-0.13 0.83Q-0.13 0.70 0 0.64L0 0.64L0 0.64Q2.62 0.19 4.10-2.43L4.10-2.43L4.10-2.43Q6.34-6.21 11.42-15.52L11.42-15.52L11.42-15.52Q16.51-24.83 17.98-27.87L17.98-27.87L17.98-27.87Q19.46-30.91 19.71-31.42L19.71-31.42L19.71-31.42Q20.54-32.96 23.49-33.98L23.49-33.98L23.49-33.98Q22.53-34.05 20.16-34.05L20.16-34.05L20.16-34.05Q17.79-34.05 12.93-33.15L12.93-33.15L12.93-33.15Q6.27-31.94 6.27-27.84L6.27-27.84L6.27-27.84Q6.27-26.30 7.30-25.66L7.30-25.66L7.30-25.66Q7.62-25.54 7.26-25.31L7.26-25.31L7.26-25.31Q6.91-25.09 6.53-25.31L6.53-25.31L6.53-25.31Q6.14-25.54 5.31-26.75L5.31-26.75L5.31-26.75Q4.03-28.67 4.03-30.08L4.03-30.08L4.03-30.08Q4.03-31.49 4.77-32.54L4.77-32.54L4.77-32.54Q5.50-33.60 7.68-34.05L7.68-34.05L7.68-34.05Q10.94-34.82 14.78-34.82L14.78-34.82L14.78-34.82Q14.91-34.82 14.98-34.82L14.98-34.82L24.51-34.88L24.51-34.88Q25.47-34.82 26.56-34.82ZM28.45-19.74L28.45-19.74L28.45-19.74Q30.21-20.42 31.39-21.86L31.39-21.86L31.39-21.86Q32.58-23.30 33.31-25.28L33.31-25.28L33.31-25.28Q34.05-27.26 34.05-28.54L34.05-28.54L34.05-28.54Q34.05-33.22 30.21-33.79L30.21-33.79L30.21-33.79Q29.63-33.86 28.80-33.86L28.80-33.86L28.80-33.86Q25.47-33.86 24.26-32.35L24.26-32.35L24.26-32.35Q23.04-30.85 21.79-28.70L21.79-28.70L21.79-28.70Q20.54-26.56 19.71-24.99L19.71-24.99L19.71-24.99Q18.88-23.42 17.57-20.77L17.57-20.77L17.57-20.77Q16.26-18.11 14.02-13.76L14.02-13.76L14.02-13.76Q11.78-9.41 9.73-5.31L9.73-5.31L9.73-5.31Q9.41-4.61 9.41-3.90L9.41-3.90L9.41-3.90Q9.41-2.50 10.94-1.34L10.94-1.34L10.94-1.34Q13.57 0.19 16.38 0.19L16.38 0.19L16.38 0.19Q19.52 0.19 23.01-1.15L23.01-1.15L23.01-1.15Q26.50-2.50 29.02-5.54L29.02-5.54L29.02-5.54Q31.55-8.58 31.55-12.54L31.55-12.54L31.55-12.54Q31.55-15.04 29.70-16.10L29.70-16.10L29.70-16.10Q27.84-17.15 25.86-17.15L25.86-17.15L25.86-17.15Q21.95-17.15 17.60-16L17.60-16L17.60-16Q17.54-16 17.54-16.13L17.54-16.13L17.54-16.13Q17.54-16.45 18.43-17.18L18.43-17.18L18.43-17.18Q19.33-17.92 19.71-18.30L19.71-18.30L19.71-18.30Q20.10-18.69 20.61-18.69L20.61-18.69L20.61-18.69Q23.36-18.69 25.02-18.88L25.02-18.88L25.02-18.88Q26.69-19.07 28.45-19.74ZM41.34-7.62L41.34-7.62L41.34-7.62Q40.38-5.12 40.38-2.98L40.38-2.98L40.38-2.98Q40.38-0.83 43.01-0.83L43.01-0.83L43.01-0.83Q43.97-0.83 45.50-1.41L45.50-1.41L45.50-1.41Q48-2.24 50.69-4.61L50.69-4.61L50.69-4.61Q53.38-6.98 55.10-9.22L55.10-9.22L55.10-9.22Q55.30-9.02 55.30-8.70L55.30-8.70L55.30-8.70Q55.30-8.38 54.85-7.74L54.85-7.74L54.85-7.74Q52.48-4.48 48.96-1.98L48.96-1.98L48.96-1.98Q45.44 0.51 41.79 0.51L41.79 0.51L41.79 0.51Q37.06 0.51 37.06-2.94L37.06-2.94L37.06-2.94Q37.06-5.70 40-10.56L40-10.56L40-10.56Q41.66-13.18 44.74-15.46L44.74-15.46L44.74-15.46Q47.81-17.73 50.62-17.73L50.62-17.73L50.62-17.73Q53.44-17.73 53.44-15.04L53.44-15.04L53.44-15.04Q53.44-12.22 51.23-10.78L51.23-10.78L51.23-10.78Q49.02-9.34 46.24-8.48L46.24-8.48L46.24-8.48Q43.46-7.62 41.34-7.62ZM41.86-8.90L41.86-8.90L41.86-8.90Q42.24-8.90 43.30-8.90L43.30-8.90L43.30-8.90Q44.35-8.90 45.82-9.34L45.82-9.34L45.82-9.34Q49.47-10.43 50.56-13.44L50.56-13.44L50.56-13.44Q50.88-14.34 50.88-15.14L50.88-15.14L50.88-15.14Q50.88-15.94 50.37-16.29L50.37-16.29L50.37-16.29Q49.86-16.64 49.47-16.64L49.47-16.64L49.47-16.64Q45.31-16.58 41.86-8.90ZM58.88-17.54L59.33-17.54L61.31-17.47L61.31-17.47Q63.81-20.86 66.30-26.37L66.30-26.37L66.30-26.37Q66.88-26.43 68.10-27.10L68.10-27.10L68.10-27.10Q69.31-27.78 69.86-28.32L69.86-28.32L69.86-28.32Q70.40-28.86 70.56-28.86L70.56-28.86L70.56-28.86Q70.72-28.86 70.72-28.70L70.72-28.70L70.72-28.70Q70.72-28.54 70.21-27.97L70.21-27.97L70.21-27.97Q69.70-27.39 67.68-24.16L67.68-24.16L67.68-24.16Q65.66-20.93 64-17.47L64-17.47L69.18-17.47L69.18-17.47Q69.82-17.47 69.89-17.28L69.89-17.28L69.89-17.28Q69.95-17.09 69.47-16.93L69.47-16.93L69.47-16.93Q68.99-16.77 68.58-16.64L68.58-16.64L68.58-16.64Q68.16-16.51 66.75-16.38L66.75-16.38L66.75-16.38Q63.62-16.19 62.88-15.14L62.88-15.14L62.88-15.14Q62.14-14.08 60.35-9.73L60.35-9.73L60.35-9.73Q57.02-1.66 59.33-1.66L59.33-1.66L59.33-1.66Q61.31-1.66 66.62-7.81L66.62-7.81L67.84-9.34L67.84-9.34Q67.97-9.15 67.97-8.74L67.97-8.74L67.97-8.74Q67.97-8.32 67.26-7.36L67.26-7.36L67.26-7.36Q61.38 0.19 56.64 0.19L56.64 0.19L56.64 0.19Q55.10 0.19 55.10-1.02L55.10-1.02L55.10-1.02Q55.10-2.56 57.60-7.55L57.60-7.55L61.06-15.30L61.06-15.30Q54.53-7.36 54.40-7.17L54.40-7.17L54.40-7.17Q53.95-6.53 53.95-7.30L53.95-7.30L53.95-7.30Q53.95-7.81 54.27-8.19L54.27-8.19L54.27-8.19Q58.62-13.63 60.29-15.81L60.29-15.81L60.29-15.81Q59.71-15.81 56.83-15.49L56.83-15.49L56.83-15.49Q56.19-15.49 57.31-16.51L57.31-16.51L57.31-16.51Q58.43-17.54 58.88-17.54L58.88-17.54ZM86.78-9.47L86.78-9.47L86.78-9.47Q86.91-9.34 86.91-8.96L86.91-8.96L86.91-8.96Q86.91-8.58 86.02-7.36L86.02-7.36L86.02-7.36Q80.32 0.19 75.46 0.19L75.46 0.19L75.46 0.19Q73.92 0.19 73.92-1.02L73.92-1.02L73.92-1.02Q73.92-3.26 76.42-7.17L76.42-7.17L76.42-7.17Q74.18-4.80 71.30-2.34L71.30-2.34L71.30-2.34Q68.42 0.13 65.92 0.13L65.92 0.13L65.92 0.13Q64.77 0.13 64.77-1.28L64.77-1.28L64.77-1.28Q64.77-1.60 64.83-1.73L64.83-1.73L64.83-1.73Q65.28-5.38 67.78-9.41L67.78-9.41L67.78-9.41Q72.77-17.47 78.14-17.47L78.14-17.47L85.50-17.47L85.50-17.47Q85.82-17.47 85.82-17.22L85.82-17.22L85.82-17.22Q85.82-16.70 85.25-16.70L85.25-16.70L85.25-16.70Q84.35-16.70 83.01-14.62L83.01-14.62L83.01-14.62Q81.66-12.54 79.46-8.22L79.46-8.22L79.46-8.22Q77.25-3.90 77.25-2.78L77.25-2.78L77.25-2.78Q77.25-1.66 78.14-1.66L78.14-1.66L78.14-1.66Q79.62-1.66 82.24-4.22L82.24-4.22L82.24-4.22Q83.65-5.70 84.35-6.53L84.35-6.53L84.35-6.53Q85.06-7.36 85.28-7.62L85.28-7.62L85.28-7.62Q85.50-7.87 86.78-9.47ZM79.94-15.42L79.94-15.42L79.94-15.42Q79.94-16.64 78.30-16.64L78.30-16.64L78.30-16.64Q76.67-16.64 74.69-14.78L74.69-14.78L74.69-14.78Q72.70-12.93 70.37-8.80L70.37-8.80L70.37-8.80Q68.03-4.67 68.03-2.82L68.03-2.82L68.03-2.82Q68.03-2.05 68.54-2.05L68.54-2.05L68.54-2.05Q70.40-2.05 75.17-7.71L75.17-7.71L75.17-7.71Q79.94-13.38 79.94-15.42ZM66.30 12.35L66.30 12.35L66.18 13.95L66.18 13.95Q66.18 16.83 68.00 18.40L68.00 18.40L68.00 18.40Q69.82 19.97 72.42 19.97L72.42 19.97L72.42 19.97Q75.01 19.97 77.09 19.10L77.09 19.10L77.09 19.10Q79.17 18.24 80.77 17.22L80.77 17.22L80.77 17.22Q82.37 16.19 83.84 14.59L83.84 14.59L83.84 14.59Q85.31 12.99 86.40 11.81L86.40 11.81L86.40 11.81Q87.49 10.62 88.80 8.32L88.80 8.32L88.80 8.32Q90.11 6.02 90.78 4.93L90.78 4.93L90.78 4.93Q91.46 3.84 92.67 1.02L92.67 1.02L92.67 1.02Q93.89-1.79 94.24-2.59L94.24-2.59L94.24-2.59Q94.59-3.39 95.81-6.46L95.81-6.46L95.81-6.46Q97.02-9.54 97.15-9.92L97.15-9.92L97.15-9.92Q95.04-6.46 91.17-3.17L91.17-3.17L91.17-3.17Q87.30 0.13 84.86 0.13L84.86 0.13L84.86 0.13Q83.71 0.13 83.71-1.28L83.71-1.28L83.71-1.73L83.71-1.73Q84.16-5.31 86.72-9.47L86.72-9.47L86.72-9.47Q91.71-17.47 97.09-17.47L97.09-17.47L104.45-17.47L104.45-17.47Q104.77-17.47 104.77-17.22L104.77-17.22L104.77-17.22Q104.77-16.70 104.19-16.70L104.19-16.70L104.19-16.70Q102.78-16.70 101.89-15.04L101.89-15.04L101.89-15.04Q100.16-12.29 95.84-2.21L95.84-2.21L95.84-2.21Q91.52 7.87 89.79 10.91L89.79 10.91L89.79 10.91Q88.06 13.95 85.18 16.96L85.18 16.96L85.18 16.96Q80.06 22.40 74.11 22.40L74.11 22.40L74.11 22.40Q71.55 22.40 69.31 21.25L69.31 21.25L69.31 21.25Q65.34 19.14 65.34 14.27L65.34 14.27L65.34 13.18L65.34 13.18Q65.34 12.22 66.18 12.22L66.18 12.22L66.18 12.22Q66.30 12.22 66.30 12.35ZM98.82-15.42L98.82-15.42L98.82-15.42Q98.82-16.64 97.22-16.64L97.22-16.64L97.22-16.64Q95.62-16.64 93.63-14.78L93.63-14.78L93.63-14.78Q91.65-12.93 89.28-8.80L89.28-8.80L89.28-8.80Q86.91-4.67 86.91-2.82L86.91-2.82L86.91-2.82Q86.91-2.05 87.49-2.05L87.49-2.05L87.49-2.05Q89.34-2.05 94.08-7.71L94.08-7.71L94.08-7.71Q98.82-13.38 98.82-15.42ZM119.17-12.67L119.17-12.67L119.17-12.67Q119.17-15.62 117.34-15.62L117.34-15.62L117.34-15.62Q115.52-15.62 112.16-11.74L112.16-11.74L112.16-11.74Q108.80-7.87 107.07-3.46L107.07-3.46L105.73 0.13L105.73 0.13Q105.34 0.13 104.19 0.51L104.19 0.51L104.19 0.51Q103.04 0.90 102.98 0.90L102.98 0.90L102.98 0.90Q102.66 0.90 102.94 0.32L102.94 0.32L102.94 0.32Q103.23-0.26 104.03-2.18L104.03-2.18L104.03-2.18Q104.83-4.10 105.98-7.04L105.98-7.04L105.98-7.04Q108.22-12.67 108.99-14.46L108.99-14.46L108.99-14.46Q105.60-10.82 102.85-7.17L102.85-7.17L102.85-7.17Q102.40-6.53 102.40-7.30L102.40-7.30L102.40-7.30Q102.40-7.81 102.72-8.19L102.72-8.19L102.72-8.19Q107.26-13.82 109.70-17.34L109.70-17.34L109.70-17.34Q112.90-17.79 113.41-18.24L113.41-18.24L113.41-18.24Q113.92-18.69 114.05-18.69L114.05-18.69L114.05-18.69Q114.18-18.69 114.21-18.43L114.21-18.43L114.21-18.43Q114.24-18.18 113.86-17.73L113.86-17.73L113.86-17.73Q113.47-17.28 109.57-10.11L109.57-10.11L109.57-10.11Q111.30-12.74 113.95-15.30L113.95-15.30L113.95-15.30Q116.61-17.86 118.50-17.86L118.50-17.86L118.50-17.86Q120.38-17.86 120.96-16.26L120.96-16.26L120.96-16.26Q121.22-15.94 121.22-15.55L121.22-15.55L121.22-15.55Q121.22-15.17 121.09-14.56L121.09-14.56L121.09-14.56Q120.96-13.95 120.83-13.57L120.83-13.57L120.83-13.57Q120.13-11.97 119.81-11.65L119.81-11.65L119.81-11.65Q119.62-11.33 119.17-11.26L119.17-11.26L119.17-11.26Q119.10-11.33 119.04-11.39L119.04-11.39L119.04-11.39Q119.17-12.10 119.17-12.67ZM139.97-9.47L139.97-9.47L139.97-9.47Q140.10-9.34 140.10-8.96L140.10-8.96L140.10-8.96Q140.10-8.58 139.20-7.36L139.20-7.36L139.20-7.36Q133.50 0.19 128.64 0.19L128.64 0.19L128.64 0.19Q127.10 0.19 127.10-1.02L127.10-1.02L127.10-1.02Q127.10-3.26 129.60-7.17L129.60-7.17L129.60-7.17Q127.36-4.80 124.48-2.34L124.48-2.34L124.48-2.34Q121.60 0.13 119.10 0.13L119.10 0.13L119.10 0.13Q117.95 0.13 117.95-1.28L117.95-1.28L117.95-1.28Q117.95-1.60 118.02-1.73L118.02-1.73L118.02-1.73Q118.46-5.38 120.96-9.41L120.96-9.41L120.96-9.41Q125.95-17.47 131.33-17.47L131.33-17.47L138.69-17.47L138.69-17.47Q139.01-17.47 139.01-17.22L139.01-17.22L139.01-17.22Q139.01-16.70 138.43-16.70L138.43-16.70L138.43-16.70Q137.54-16.70 136.19-14.62L136.19-14.62L136.19-14.62Q134.85-12.54 132.64-8.22L132.64-8.22L132.64-8.22Q130.43-3.90 130.43-2.78L130.43-2.78L130.43-2.78Q130.43-1.66 131.33-1.66L131.33-1.66L131.33-1.66Q132.80-1.66 135.42-4.22L135.42-4.22L135.42-4.22Q136.83-5.70 137.54-6.53L137.54-6.53L137.54-6.53Q138.24-7.36 138.46-7.62L138.46-7.62L138.46-7.62Q138.69-7.87 139.97-9.47ZM133.12-15.42L133.12-15.42L133.12-15.42Q133.12-16.64 131.49-16.64L131.49-16.64L131.49-16.64Q129.86-16.64 127.87-14.78L127.87-14.78L127.87-14.78Q125.89-12.93 123.55-8.80L123.55-8.80L123.55-8.80Q121.22-4.67 121.22-2.82L121.22-2.82L121.22-2.82Q121.22-2.05 121.73-2.05L121.73-2.05L121.73-2.05Q123.58-2.05 128.35-7.71L128.35-7.71L128.35-7.71Q133.12-13.38 133.12-15.42ZM167.10-16.58L167.10-16.58L167.10-16.58Q167.10-15.74 166.02-14.14L166.02-14.14L166.02-14.14Q164.93-12.54 162.72-8.22L162.72-8.22L162.72-8.22Q160.51-3.90 160.51-2.78L160.51-2.78L160.51-2.78Q160.51-1.66 161.41-1.66L161.41-1.66L161.41-1.66Q162.56-1.66 164.64-3.55L164.64-3.55L164.64-3.55Q166.72-5.44 168.26-7.23L168.26-7.23L168.26-7.23Q169.79-9.02 169.98-9.41L169.98-9.41L169.98-9.41Q170.11-9.22 170.11-8.83L170.11-8.83L170.11-8.83Q170.11-8.45 169.28-7.36L169.28-7.36L169.28-7.36Q163.90-0.13 159.10 0.26L159.10 0.26L159.10 0.26Q158.34 0.32 157.76-0.03L157.76-0.03L157.76-0.03Q157.18-0.38 157.18-0.99L157.18-0.99L157.18-0.99Q157.18-1.60 157.50-2.59L157.50-2.59L157.50-2.59Q157.82-3.58 158.14-4.29L158.14-4.29L158.14-4.29Q159.49-7.30 160.67-9.54L160.67-9.54L160.67-9.54Q161.86-11.78 163.14-14.59L163.14-14.59L163.14-14.59Q163.78-15.94 162.24-15.10L162.24-15.10L162.24-15.10Q158.14-12.54 153.73-6.40L153.73-6.40L153.73-6.40Q151.49-3.39 150.85-1.09L150.85-1.09L150.85-1.09Q149.95-0.32 149.28-0.58L149.28-0.58L149.28-0.58Q148.61-0.83 148.61-1.89L148.61-1.89L148.61-1.89Q148.61-2.94 150.72-7.55L150.72-7.55L150.72-7.55Q152.90-11.78 154.18-14.59L154.18-14.59L154.18-14.59Q154.82-15.94 153.28-15.10L153.28-15.10L153.28-15.10Q151.17-13.76 148.26-10.82L148.26-10.82L148.26-10.82Q145.34-7.87 144-4.80L144-4.80L144-4.80Q143.42-3.46 141.95 0.13L141.95 0.13L141.95 0.13Q141.57 0.13 140.45 0.54L140.45 0.54L140.45 0.54Q139.33 0.96 139.14 0.96L139.14 0.96L139.14 0.96Q138.88 0.96 139.17 0.35L139.17 0.35L139.17 0.35Q139.46-0.26 140.26-2.18L140.26-2.18L140.26-2.18Q141.06-4.10 142.21-7.04L142.21-7.04L142.21-7.04Q144.45-12.67 145.22-14.46L145.22-14.46L145.22-14.46Q141.82-10.82 139.07-7.17L139.07-7.17L139.07-7.17Q138.62-6.53 138.62-7.30L138.62-7.30L138.62-7.30Q138.62-7.81 138.94-8.19L138.94-8.19L138.94-8.19Q143.49-13.82 145.92-17.34L145.92-17.34L145.92-17.34Q149.12-17.79 149.63-18.24L149.63-18.24L149.63-18.24Q150.14-18.69 150.27-18.69L150.27-18.69L150.27-18.69Q150.40-18.69 150.43-18.43L150.43-18.43L150.43-18.43Q150.46-18.18 150.05-17.70L150.05-17.70L150.05-17.70Q149.63-17.22 145.02-8.64L145.02-8.64L145.02-8.64Q145.41-9.09 148.42-12.48L148.42-12.48L148.42-12.48Q149.89-14.02 152.19-15.74L152.19-15.74L152.19-15.74Q154.82-17.66 156.74-17.66L156.74-17.66L156.74-17.66Q157.95-17.66 157.95-16.70L157.95-16.70L157.95-16.70Q157.95-15.87 157.25-14.85L157.25-14.85L154.37-9.47L157.38-12.48L157.38-12.48Q158.85-14.02 161.15-15.74L161.15-15.74L161.15-15.74Q163.78-17.66 165.44-17.66L165.44-17.66L165.44-17.66Q167.10-17.66 167.10-16.58Z" fill="url(#editing-shiny-gradient2)"></path></g></g><style>text {
  font-size: 64px;
  font-family: Arial Black;
  dominant-baseline: central;
  text-anchor: middle;
}</style></svg>