<svg width="338.187" height="129.44" xmlns="http://www.w3.org/2000/svg" viewBox="80.907 10.28 338.187 129.44" style="background:0 0" preserveAspectRatio="xMidYMid">
    <defs>
        <linearGradient id="editing-shiny-gradient" x1=".043" x2=".957" y1=".297" y2=".703" gradientUnits="objectBoundingBox">
            <stop offset="0" stop-color="#ffb200"/>
            <stop offset=".5" stop-color="#e10057"/>
            <stop offset="1" stop-color="#5A1A80"/>
        </linearGradient>
        <linearGradient id="editing-shiny-gradient2" x1="0" x2="0" y1="0" y2="1">
            <stop offset=".2" stop-color="#fff" stop-opacity=".8"/>
            <stop offset=".8" stop-color="#fff" stop-opacity="0"/>
        </linearGradient>
        <filter id="editing-shiny2" x="-100%" y="-100%" width="300%" height="300%">
            <feMorphology radius="2"/>
        </filter>
        <filter id="editing-shiny" x="-100%" y="-100%" width="300%" height="300%">
            <feFlood flood-color="#fff" result="flood"/>
            <feConvolveMatrix in="SourceGraphic" result="conv" order="8,8" divisor="1" kernelMatrix="0 0 0 0 0 0 0 0 0 0 0 1 1 0 0 0 0 0 0 1 1 0 0 0 0 0 1 0 0 1 0 0 0 0 1 0 0 1 0 0 0 1 0 0 0 0 1 0 0 1 1 0 0 1 1 0 0 0 0 1 1 0 0 0"/>
            <feOffset dy="4" in="conv" result="offset"/>
            <feComposite operator="in" in="flood" in2="offset" result="comp"/>
            <feGaussianBlur in="offset" stdDeviation="3" result="shadow"/>
            <feColorMatrix in="shadow" values="0.7 0 0 0 0 0 0.7 0 0 0 0 0 0.7 0 0 0 0 0 0.3 0" result="dark-shadow"/>
            <feOffset dy="4" in="dark-shadow" result="offset-shadow"/>
            <feOffset dy="2" in="conv" result="offset-2"/>
            <feComposite operator="out" in="offset" in2="offset-2" result="edge-diff"/>
            <feGaussianBlur in="edge-diff" stdDeviation="1" result="edge-blur"/>
            <feColorMatrix in="edge-blur" result="edge-shadow" values="0 0 0 0 0 0 0 0 0 0 0 0 0 0 0 0 0 0 0.5 0"/>
            <feComposite operator="in" in="edge-shadow" in2="offset" result="edge-shadow-in"/>
            <feOffset dy="1" in="edge-shadow-in" result="edge-shadow-final"/>
            <feMerge result="out">
                <feMergeNode in="offset-shadow"/>
                <feMergeNode in="comp"/>
                <feMergeNode in="edge-shadow-final"/>
                <feMergeNode in="SourceGraphic"/>
            </feMerge>
        </filter>
    </defs>
    <g filter="url(#editing-shiny)">
        <path d="M49.28-12.1q0 2.31-1.02 4.36-2.18 4.6-8.32 7.68-6.15 3.07-12.8 3.07-10.12 0-13.76-6.91-6.6 5.5-9.41 5.5-.51 0-.9-.19Q1.15.38 1.15-3.01q0-3.39 2.82-8.32 2.81-4.93 4.93-5.82.96-.32 1.47-.32 1.85 0 2.81 3.07l1.92 6.14q1.86-1.98 5.06-6.33l5.7-7.68Q36.35-35.9 39.62-37.18q1.15-.45 2.36-.45 1.22 0 2.02.51t.8 1.28q0 1.15-1.86 1.34-1.92 1.09-7.32 6.37-5.41 5.28-6.44 6.69-7.16 9.98-13.24 15.36 3.9 7.74 11.71 7.74 4.73 0 9.41-2.97 4.67-2.98 6.97-7.33 1.03-1.86 1.03-4.16t-1.83-4.38q-1.82-2.08-4.57-3.04-1.28-.2-4.1-.55-2.82-.35-2.82-1.18 0-.32.26-.58.77-.89 1.98-.89.71 0 1.38.25.67.26 1.06.39.38.12.89.32 1.41.12 2.43.12 4.23 0 7.68-1.34 4.42-1.73 5.64-5.18.76-2.24.76-4.04 0-4.41-4.28-6.59-3.72-1.92-10.18-1.92-10.18 0-18.24 3.84-4.1 1.92-7.78 5.7-3.68 3.77-3.68 6.46 0 1.86.96 3.07.39.52 1.35 1.28.32.2-.39.2-3.96-.9-3.96-5.32 0-4.41 4.48-8.32 3.32-2.88 7.48-4.67 8.64-3.71 19.65-3.71 7.87 0 12.55 2.3 5.44 2.56 5.44 7.75 0 2.05-.84 4.16-1.34 3.84-6.97 5.82-4.23 1.47-9.09 1.54 3.78.19 6.37 2.78 2.59 2.59 2.59 6.43Zm-40.9-2.36q-.06 0-.32.12Q3.33-7.49 3.33-3.33q0 1.73.83 3.14.19.32.64.32 2.05 0 7.87-5.83l-.19-.25q-2.56-8.51-4.1-8.51ZM55.68.83q-.7 0-1.28-.19-4.1-1.15-4.1-4.61 0-4.48 5.64-10.37 5.63-5.88 10.11-5.88 1.47 0 2.4.8.93.8.93 1.95 0 3.58-5.41 6.85-5.41 3.26-8.8 3.26-.51 0-.9-.13-.96 1.73-.96 3.65 0 3.33 3.17 3.33T64.7-4.8q3.91-3.14 6.66-6.66.58-.76.99-.76.42 0 .42.38t-.51 1.09q-3.46 4.54-8.32 8.06Q59.07.83 55.68.83Zm12.1-18.43q0-.77-1.64-.77-1.63 0-4.64 2.5-4.03 3.33-6.27 6.97.39.13.83.13 2.44 0 6.5-2.59 4.06-2.59 5.09-5.66.13-.32.13-.58Zm17.79-3.01 9.21-.13q.2.13.2.2 0 .57-7.97 1.6-7.97 1.02-8.61 1.21-1.22 1.09-4.48 6.5-3.26 5.41-3.26 7.9 0 2.37 3.26 2.37 1.54 0 4.03-.96 2.5-.96 3.84-1.79 3.59-2.24 7.68-6.59.9-.9 1.22-.9.19 0 .19.38 0 .39-.96 1.54-3.33 4.1-7.49 6.59Q77.44.38 72.9.38q-1.99 0-3.24-.86-1.24-.86-1.24-3.49 0-2.62 2.3-7.2 2.3-4.57 3.52-6.81-.9.19-1.54.19-1.85 0-1.85-1.47 0-1.09 1.53-1.54.2 0 .58-.06h3.71q1.15-1.48 2.63-3.4 1.79-2.3 2.43-2.3.64 0 1.6.51.96.51.96 1.22 0 .7-3.07 4.16 1.66.06 4.35.06Zm23.55 1.47.9-.19q.7 0 1.34.58.64.57.64.89 0 .32-3.97 6.18-3.97 5.86-3.97 8.16 0 .19.07.38.32 1.48 1.41 1.48 3.32 0 12.16-11.01.19-.26.44-.26.26 0 .26.48t-.58 1.25Q109.63-.26 105.34-.26q-.57 0-1.08-.19-2.82-1.09-2.82-4.22 0-1.09.26-2.18l-3.97 3.84Q93.95.32 92.26.32q-1.7 0-3.24-1.09-1.72-1.28-1.72-3.39 0-4.67 6.52-11.17 6.53-6.49 11.97-6.49 2.11 0 2.82 1.47l.32.86q.13.35.19.35ZM89.98-3.39q0 2.3 1.6 2.3 3.72 0 10.12-8.13l6.78-9.34q-.51-.9-1.66-.9-3.91 0-10.37 6.05-6.47 6.05-6.47 10.02Zm45.64-16.13.89-.19q.83 0 1.31.51.48.51.48.8 0 .29-.06.64-.06.35-1.86 3.23-2.24 3.91-3.71 6.59-5.18 9.67-7.93 13.25-5.89 7.81-11.2 7.81-1.86 0-3.24-1.57-1.37-1.57-1.44-3.49.2-.76.58-.76.19 0 .32.44.32 1.67 1.22 2.56.89.9 1.79.9 3.65 0 7.81-4.8 2.75-3.2 6.08-9.34l3.2-6.34-4.8 4.86Q120.45 0 118.75 0q-1.69 0-3.23-1.15-1.73-1.28-1.73-3.39 0-4.68 6.56-11.14 6.56-6.46 11.94-6.46 2.17 0 2.81 1.4.2.52.32.87.13.35.2.35ZM116.48-3.78q0 2.31 1.6 2.31 3.71 0 10.11-8.13l6.79-9.34q-.39-.9-1.6-.9-3.97 0-10.44 6.11-6.46 6.11-6.46 9.95Zm34.5 4.1q-4.8 0-4.8-5.31 0-2.69 1.4-5.89 1.41-3.2 3.08-5.38-.32.07-.84.07-1.53 0-2.56-2.18l-4.73 6.15q-3.97 4.92-4.61 4.92-.32 0-.32-.25 0-.64 1.09-1.86 5.57-6.46 7.87-10.94 1.47-5.57 3.71-5.57 1.47 0 1.47 1.28t-1.6 3.26l-1.53 2.05q0 1.35 1.98 1.35 1.15 0 2.56-.84l1.67-1.02q.12-.06.64-.06.51 0 1.08.64.58.64.39 1.15l-4.42 5.57q-4.09 5.24-4.09 8.28 0 3.04 2.81 3.04 2.95 0 7.23-3.13 2.56-1.86 4.68-4.16 1.98-2.31 2.17-2.31.45 0 .45.48t-.58 1.12l-2.04 2.31q-1.73 1.79-3.84 3.45-5.06 3.78-8.32 3.78Zm33.4-19.46.9-.19q.7 0 1.34.58.64.57.64.89 0 .32-3.96 6.18-3.97 5.86-3.97 8.16 0 .19.06.38.32 1.48 1.41 1.48 3.33 0 12.16-11.01.19-.26.45-.26.25 0 .25.48t-.57 1.25Q184.9-.26 180.61-.26q-.58 0-1.09-.19-2.82-1.09-2.82-4.22 0-1.09.26-2.18l-3.97 3.84Q169.22.32 167.52.32q-1.7 0-3.23-1.09-1.73-1.28-1.73-3.39 0-4.67 6.53-11.17 6.53-6.49 11.97-6.49 2.11 0 2.81 1.47l.32.86q.13.35.19.35ZM165.25-3.39q0 2.3 1.6 2.3 3.71 0 10.11-8.13l6.78-9.34q-.51-.9-1.66-.9-3.9 0-10.37 6.05-6.46 6.05-6.46 10.02ZM220.1-.77q-4.36 0-4.36-4.03 0-2.3 2.05-6.3t4.29-6.76q-3.97 1.92-9.15 6.95-5.19 5.02-7.23 10.53-.32.51-1.09.51-1.54 0-1.54-1.73.64-3.52 2.88-8.06.71-1.48 4.16-8.58-4.99 3.26-8.48 7.01-3.49 3.74-6.46 7.52-2.98 3.77-3.36 3.77-.83 0-1.44-.76-.61-.77-.61-1.54 0-1.15 3.33-8.45l-3.84 4.03q-1.41 1.41-1.76 1.41-.35 0-.35-.41 0-.42.51-.93 2.37-2.37 4.22-4.74 1.86-2.37 6.15-8.45.7-.96 1.98-.96t1.28 1.22q0 .45-3.39 6.24t-3.78 7.26q2.63-2.88 7.87-7.74 7.88-7.3 10.37-7.3.77 0 1.41.45.64.45.64.99 0 .55-2.5 4.84-2.43 4.41-2.68 5.24 7.1-5.95 7.1-6.01 6.02-4.67 8.64-4.67.77 0 1.44.48.67.48.67 1.12 0 .12-4.16 5.4t-4.67 8.68q-.13 1.15.45 1.72.57.58 2.08.58 1.5 0 4.41-2.08 2.92-2.08 5.92-5.6 1.16-1.28 1.57-1.28.42 0 .42.32 0 .45-.58 1.02-3.13 3.78-6.75 6.44-3.62 2.65-5.66 2.65Z" fill="url(#editing-shiny-gradient)" transform="translate(134.923 103)"/>
    </g>
    <g filter="url(#editing-shiny2)">
        <path d="M49.28-12.1q0 2.31-1.02 4.36-2.18 4.6-8.32 7.68-6.15 3.07-12.8 3.07-10.12 0-13.76-6.91-6.6 5.5-9.41 5.5-.51 0-.9-.19Q1.15.38 1.15-3.01q0-3.39 2.82-8.32 2.81-4.93 4.93-5.82.96-.32 1.47-.32 1.85 0 2.81 3.07l1.92 6.14q1.86-1.98 5.06-6.33l5.7-7.68Q36.35-35.9 39.62-37.18q1.15-.45 2.36-.45 1.22 0 2.02.51t.8 1.28q0 1.15-1.86 1.34-1.92 1.09-7.32 6.37-5.41 5.28-6.44 6.69-7.16 9.98-13.24 15.36 3.9 7.74 11.71 7.74 4.73 0 9.41-2.97 4.67-2.98 6.97-7.33 1.03-1.86 1.03-4.16t-1.83-4.38q-1.82-2.08-4.57-3.04-1.28-.2-4.1-.55-2.82-.35-2.82-1.18 0-.32.26-.58.77-.89 1.98-.89.71 0 1.38.25.67.26 1.06.39.38.12.89.32 1.41.12 2.43.12 4.23 0 7.68-1.34 4.42-1.73 5.64-5.18.76-2.24.76-4.04 0-4.41-4.28-6.59-3.72-1.92-10.18-1.92-10.18 0-18.24 3.84-4.1 1.92-7.78 5.7-3.68 3.77-3.68 6.46 0 1.86.96 3.07.39.52 1.35 1.28.32.2-.39.2-3.96-.9-3.96-5.32 0-4.41 4.48-8.32 3.32-2.88 7.48-4.67 8.64-3.71 19.65-3.71 7.87 0 12.55 2.3 5.44 2.56 5.44 7.75 0 2.05-.84 4.16-1.34 3.84-6.97 5.82-4.23 1.47-9.09 1.54 3.78.19 6.37 2.78 2.59 2.59 2.59 6.43Zm-40.9-2.36q-.06 0-.32.12Q3.33-7.49 3.33-3.33q0 1.73.83 3.14.19.32.64.32 2.05 0 7.87-5.83l-.19-.25q-2.56-8.51-4.1-8.51ZM55.68.83q-.7 0-1.28-.19-4.1-1.15-4.1-4.61 0-4.48 5.64-10.37 5.63-5.88 10.11-5.88 1.47 0 2.4.8.93.8.93 1.95 0 3.58-5.41 6.85-5.41 3.26-8.8 3.26-.51 0-.9-.13-.96 1.73-.96 3.65 0 3.33 3.17 3.33T64.7-4.8q3.91-3.14 6.66-6.66.58-.76.99-.76.42 0 .42.38t-.51 1.09q-3.46 4.54-8.32 8.06Q59.07.83 55.68.83Zm12.1-18.43q0-.77-1.64-.77-1.63 0-4.64 2.5-4.03 3.33-6.27 6.97.39.13.83.13 2.44 0 6.5-2.59 4.06-2.59 5.09-5.66.13-.32.13-.58Zm17.79-3.01 9.21-.13q.2.13.2.2 0 .57-7.97 1.6-7.97 1.02-8.61 1.21-1.22 1.09-4.48 6.5-3.26 5.41-3.26 7.9 0 2.37 3.26 2.37 1.54 0 4.03-.96 2.5-.96 3.84-1.79 3.59-2.24 7.68-6.59.9-.9 1.22-.9.19 0 .19.38 0 .39-.96 1.54-3.33 4.1-7.49 6.59Q77.44.38 72.9.38q-1.99 0-3.24-.86-1.24-.86-1.24-3.49 0-2.62 2.3-7.2 2.3-4.57 3.52-6.81-.9.19-1.54.19-1.85 0-1.85-1.47 0-1.09 1.53-1.54.2 0 .58-.06h3.71q1.15-1.48 2.63-3.4 1.79-2.3 2.43-2.3.64 0 1.6.51.96.51.96 1.22 0 .7-3.07 4.16 1.66.06 4.35.06Zm23.55 1.47.9-.19q.7 0 1.34.58.64.57.64.89 0 .32-3.97 6.18-3.97 5.86-3.97 8.16 0 .19.07.38.32 1.48 1.41 1.48 3.32 0 12.16-11.01.19-.26.44-.26.26 0 .26.48t-.58 1.25Q109.63-.26 105.34-.26q-.57 0-1.08-.19-2.82-1.09-2.82-4.22 0-1.09.26-2.18l-3.97 3.84Q93.95.32 92.26.32q-1.7 0-3.24-1.09-1.72-1.28-1.72-3.39 0-4.67 6.52-11.17 6.53-6.49 11.97-6.49 2.11 0 2.82 1.47l.32.86q.13.35.19.35ZM89.98-3.39q0 2.3 1.6 2.3 3.72 0 10.12-8.13l6.78-9.34q-.51-.9-1.66-.9-3.91 0-10.37 6.05-6.47 6.05-6.47 10.02Zm45.64-16.13.89-.19q.83 0 1.31.51.48.51.48.8 0 .29-.06.64-.06.35-1.86 3.23-2.24 3.91-3.71 6.59-5.18 9.67-7.93 13.25-5.89 7.81-11.2 7.81-1.86 0-3.24-1.57-1.37-1.57-1.44-3.49.2-.76.58-.76.19 0 .32.44.32 1.67 1.22 2.56.89.9 1.79.9 3.65 0 7.81-4.8 2.75-3.2 6.08-9.34l3.2-6.34-4.8 4.86Q120.45 0 118.75 0q-1.69 0-3.23-1.15-1.73-1.28-1.73-3.39 0-4.68 6.56-11.14 6.56-6.46 11.94-6.46 2.17 0 2.81 1.4.2.52.32.87.13.35.2.35ZM116.48-3.78q0 2.31 1.6 2.31 3.71 0 10.11-8.13l6.79-9.34q-.39-.9-1.6-.9-3.97 0-10.44 6.11-6.46 6.11-6.46 9.95Zm34.5 4.1q-4.8 0-4.8-5.31 0-2.69 1.4-5.89 1.41-3.2 3.08-5.38-.32.07-.84.07-1.53 0-2.56-2.18l-4.73 6.15q-3.97 4.92-4.61 4.92-.32 0-.32-.25 0-.64 1.09-1.86 5.57-6.46 7.87-10.94 1.47-5.57 3.71-5.57 1.47 0 1.47 1.28t-1.6 3.26l-1.53 2.05q0 1.35 1.98 1.35 1.15 0 2.56-.84l1.67-1.02q.12-.06.64-.06.51 0 1.08.64.58.64.39 1.15l-4.42 5.57q-4.09 5.24-4.09 8.28 0 3.04 2.81 3.04 2.95 0 7.23-3.13 2.56-1.86 4.68-4.16 1.98-2.31 2.17-2.31.45 0 .45.48t-.58 1.12l-2.04 2.31q-1.73 1.79-3.84 3.45-5.06 3.78-8.32 3.78Zm33.4-19.46.9-.19q.7 0 1.34.58.64.57.64.89 0 .32-3.96 6.18-3.97 5.86-3.97 8.16 0 .19.06.38.32 1.48 1.41 1.48 3.33 0 12.16-11.01.19-.26.45-.26.25 0 .25.48t-.57 1.25Q184.9-.26 180.61-.26q-.58 0-1.09-.19-2.82-1.09-2.82-4.22 0-1.09.26-2.18l-3.97 3.84Q169.22.32 167.52.32q-1.7 0-3.23-1.09-1.73-1.28-1.73-3.39 0-4.67 6.53-11.17 6.53-6.49 11.97-6.49 2.11 0 2.81 1.47l.32.86q.13.35.19.35ZM165.25-3.39q0 2.3 1.6 2.3 3.71 0 10.11-8.13l6.78-9.34q-.51-.9-1.66-.9-3.9 0-10.37 6.05-6.46 6.05-6.46 10.02ZM220.1-.77q-4.36 0-4.36-4.03 0-2.3 2.05-6.3t4.29-6.76q-3.97 1.92-9.15 6.95-5.19 5.02-7.23 10.53-.32.51-1.09.51-1.54 0-1.54-1.73.64-3.52 2.88-8.06.71-1.48 4.16-8.58-4.99 3.26-8.48 7.01-3.49 3.74-6.46 7.52-2.98 3.77-3.36 3.77-.83 0-1.44-.76-.61-.77-.61-1.54 0-1.15 3.33-8.45l-3.84 4.03q-1.41 1.41-1.76 1.41-.35 0-.35-.41 0-.42.51-.93 2.37-2.37 4.22-4.74 1.86-2.37 6.15-8.45.7-.96 1.98-.96t1.28 1.22q0 .45-3.39 6.24t-3.78 7.26q2.63-2.88 7.87-7.74 7.88-7.3 10.37-7.3.77 0 1.41.45.64.45.64.99 0 .55-2.5 4.84-2.43 4.41-2.68 5.24 7.1-5.95 7.1-6.01 6.02-4.67 8.64-4.67.77 0 1.44.48.67.48.67 1.12 0 .12-4.16 5.4t-4.67 8.68q-.13 1.15.45 1.72.57.58 2.08.58 1.5 0 4.41-2.08 2.92-2.08 5.92-5.6 1.16-1.28 1.57-1.28.42 0 .42.32 0 .45-.58 1.02-3.13 3.78-6.75 6.44-3.62 2.65-5.66 2.65Z" fill="url(#editing-shiny-gradient2)" transform="translate(134.689 103)"/>
    </g>
    <style>
        
    </style>
</svg>
